<svg xmlns="http://www.w3.org/2000/svg" viewBox="0 0 148.81 35.31"><defs><style>.cls-1{fill:#636466;}</style></defs><title>LOGO-Conservateur</title><g id="Calque_2" data-name="Calque 2"><g id="Calque_1-2" data-name="Calque 1"><path class="cls-1" d="M0,23c1.63-.21,1.64-.6,1.68-1.93V16.52c0-1.33-.05-1.72-1.68-1.93v-.2H4.56v.2c-1.63.21-1.68.6-1.68,1.93v4.25a6.32,6.32,0,0,0,.2,2l1.65.12c2.06.14,2.4-.47,3.45-2.13l.18.08-.77,2.41H0Z"/><path class="cls-1" d="M8.68,23c1.63-.21,1.64-.6,1.68-1.93V16.52c0-1.33-.05-1.72-1.68-1.93v-.2H16l-.16,2h-.2c-.1-1.67-1.36-1.69-2.73-1.69H11.56V18.4H13c1,0,1.79-.08,1.94-1.19h.2V20.1h-.2C14.73,19,14,18.95,13,18.95H11.56v2.13c0,.77-.19,1.83,2,1.83,1.71,0,2.55-.62,2.89-2.25h.2a7.87,7.87,0,0,1-.46,2.57H8.68Z"/><path class="cls-1" d="M49.13,19c0,2,1.11,4.58,3.55,4.58,2.24,0,3.23-2.18,3.23-4,0-2.29-1.44-4.47-3.51-4.47-2.33,0-3.27,2.18-3.27,3.93m8.36.32c0,2.79-2.12,4.56-5,4.56s-5-1.78-5-4.58,2.12-4.55,5-4.55c3.47,0,5,2.26,5,4.56"/><path class="cls-1" d="M66.69,21.66l-.07-4.73c0-1.23-.37-1.6-1.9-1.85v-.19h3.7v.19c-.94.12-1.11.61-1.22,1.45a66.24,66.24,0,0,0-.05,7.38l-.18,0c-2.17-2.45-4.58-4.72-6.88-7.08v2.38c0,3.22-.08,3.88,1.89,4.25v.19H57.92V23.5c1.83-.18,1.76-1.38,1.76-4.32V17.24c0-1.3-.22-1.8-1.94-2.17v-.19H60Z"/><path class="cls-1" d="M74.42,17.16H74.2c-.22-1-.57-2.06-1.91-2.06a1.47,1.47,0,0,0-1.59,1.43c0,2.24,4.27,2.17,4.27,4.78,0,1.67-1.74,2.54-3.3,2.54a4.65,4.65,0,0,1-2.39-.66L68.9,21h.24a3,3,0,0,0,2.74,2.48,1.6,1.6,0,0,0,1.79-1.58c0-2.31-4.15-2.1-4.15-4.69,0-1.52,1.57-2.48,3-2.48a4.35,4.35,0,0,1,2,.51Z"/><path class="cls-1" d="M76,23.5c1.63-.21,1.64-.6,1.68-1.93V17c0-1.33-.05-1.72-1.68-1.93v-.19h7.29l-.16,2h-.2c-.09-1.67-1.36-1.69-2.73-1.69H78.87v3.69h1.41c1,0,1.79-.08,1.94-1.19h.2v2.89h-.2c-.18-1.14-.92-1.15-1.94-1.15H78.87v2.13c0,.76-.19,1.83,2,1.83,1.71,0,2.55-.62,2.89-2.25H84a7.83,7.83,0,0,1-.46,2.56H76Z"/><path class="cls-1" d="M87.75,19.26c1.3,0,2.82-.58,2.82-2s-1.4-2.13-2.82-2.11Zm-1.2-1.71c0-2-.07-2.28-1.59-2.41V15l3.31-.1C91.7,14.75,92,16.34,92,17a2.29,2.29,0,0,1-1.68,2.13l.07.09c1,1.75,2.35,4,4.59,4.42l0,.2c-1.44-.07-2.5,0-3.28-.8a11.32,11.32,0,0,1-1.89-2.59c-.54-1.08-1-.76-2-.92v2.09c0,1.43,0,1.68,1.88,1.93v.19H84.87V23.5c1.63-.21,1.64-.6,1.68-1.93Z"/><path class="cls-1" d="M103,14.88v.2c-1.28.1-1.67,1.13-2.51,3L97.89,24H97.7l-3.07-7c-.41-.95-.72-1.78-1.93-1.9v-.2H97v.2c-1.91.18-1.29,1.22-.94,2l2.17,5,1.6-3.67c1.17-2.66,1.38-3.08-.68-3.37v-.2Z"/><path class="cls-1" d="M104.83,16l-1.28,3.37h2.69Zm-1.51,4a11.92,11.92,0,0,0-.83,2.62c0,.79.94.79,1.55.88v.19h-3.72V23.5c1.21-.31,1.33-.57,1.75-1.58l1.53-3.82.82-2.11c.12-.34.3-.65.15-.89a2.52,2.52,0,0,0,1-.7l3,7.6c.37.95.6,1.32,1.68,1.52v.19h-4V23.5c.47-.1,1-.25,1-.83a11.7,11.7,0,0,0-.87-2.67Z"/><path class="cls-1" d="M117.85,14.48H118l.19,2.42-.19,0c-.48-1.61-1.22-1.67-2.78-1.67h-.81v6c0,1.61.08,2,1.9,2.24v.19h-5V23.5c1.82-.21,1.9-.64,1.9-2.24v-6h-.81c-1.56,0-2.3.06-2.78,1.67l-.19,0,.19-2.42h.11l.14.12a.89.89,0,0,0,.84.28h6.21a.89.89,0,0,0,.84-.28Z"/><path class="cls-1" d="M118.86,23.5c1.63-.21,1.64-.6,1.68-1.93V17c0-1.33-.05-1.72-1.68-1.93v-.19h7.28l-.16,2h-.2c-.09-1.67-1.36-1.69-2.73-1.69h-1.32v3.69h1.41c1,0,1.79-.08,1.94-1.19h.21v2.89h-.21c-.18-1.14-.92-1.15-1.94-1.15h-1.41v2.13c0,.76-.19,1.83,2,1.83,1.71,0,2.55-.62,2.89-2.25h.2a7.75,7.75,0,0,1-.46,2.56h-7.54Z"/><path class="cls-1" d="M138,14.88v.2c-1.23.13-1.32.85-1.37,2.57l-.08,2.84c0,1.67-.79,3.37-3.8,3.37-4.2,0-3.77-2.9-3.77-3.94V17c0-1.34-.05-1.73-1.68-1.93v-.2H132v.2c-1.78.25-1.81.5-1.81,1.93v2.66a3,3,0,0,0,3.28,3.59c2.93,0,2.65-2.67,2.65-4.25V17.64c0-1.65-.14-2.4-2-2.57v-.2Z"/><path class="cls-1" d="M141.62,19.26c1.3,0,2.82-.58,2.82-2s-1.39-2.13-2.82-2.11Zm-1.19-1.71c0-2-.07-2.28-1.59-2.41V15l3.31-.1c3.42-.1,3.69,1.49,3.69,2.11a2.29,2.29,0,0,1-1.68,2.13l.07.09c1,1.75,2.35,4,4.58,4.42l0,.2c-1.44-.07-2.5,0-3.28-.8a11.33,11.33,0,0,1-1.89-2.59c-.54-1.08-1-.76-2-.92v2.09c0,1.43,0,1.68,1.89,1.93v.19h-4.76V23.5c1.63-.21,1.64-.6,1.68-1.93Z"/><polygon class="cls-1" points="105.17 26.97 104.96 26.97 105.31 26.07 105.76 26.07 105.17 26.97"/><polygon class="cls-1" points="59.7 29.17 59.7 26.28 61.34 26.28 61.34 26.59 60.02 26.59 60.02 27.49 61.24 27.49 61.24 27.8 60.02 27.8 60.02 28.87 61.34 28.87 61.34 29.17 59.7 29.17"/><polygon class="cls-1" points="63.65 29.17 63.05 28.03 62.46 29.17 62.09 29.17 62.87 27.72 62.09 26.28 62.45 26.28 63.05 27.42 63.65 26.28 64.01 26.28 63.23 27.72 64.02 29.17 63.65 29.17"/><path class="cls-1" d="M66.29,27.06a.44.44,0,0,0-.5-.47h-.56v1.14h.57a.44.44,0,0,0,.49-.47Zm-.48,1h-.59v1.14H64.9v-2.9h.9a.74.74,0,0,1,.82.77v.21a.74.74,0,0,1-.8.78"/><polygon class="cls-1" points="67.56 29.17 67.56 26.28 69.2 26.28 69.2 26.59 67.89 26.59 67.89 27.49 69.1 27.49 69.1 27.8 67.89 27.8 67.89 28.87 69.2 28.87 69.2 29.17 67.56 29.17"/><path class="cls-1" d="M71.57,27.06a.44.44,0,0,0-.5-.47h-.56v1.06h.57a.44.44,0,0,0,.49-.47Zm0,2.12L71,28h-.5v1.22h-.33V26.28h.9a.75.75,0,0,1,.82.76v.14a.76.76,0,0,1-.55.74L72,29.17Z"/><polygon class="cls-1" points="73.79 26.59 73.79 29.17 73.47 29.17 73.47 26.59 72.72 26.59 72.72 26.28 74.53 26.28 74.53 26.59 73.79 26.59"/><polygon class="cls-1" points="76.77 29.17 76.77 26.28 78.4 26.28 78.4 26.59 77.09 26.59 77.09 27.49 78.31 27.49 78.31 27.8 77.09 27.8 77.09 28.87 78.4 28.87 78.4 29.17 76.77 29.17"/><polygon class="cls-1" points="80.72 29.17 79.71 26.9 79.71 29.17 79.38 29.17 79.38 26.28 79.77 26.28 80.79 28.59 80.79 26.28 81.11 26.28 81.11 29.17 80.72 29.17"/><path class="cls-1" d="M84.39,29.21a.79.79,0,0,1-.85-.78V27a.86.86,0,0,1,1.71,0h-.33a.47.47,0,0,0-.53-.46.47.47,0,0,0-.54.46v1.4a.47.47,0,0,0,.54.47.47.47,0,0,0,.53-.47v-.54H84.3v-.31h1v.86a.8.8,0,0,1-.86.77"/><polygon class="cls-1" points="86.32 29.17 86.32 26.28 87.95 26.28 87.95 26.59 86.64 26.59 86.64 27.49 87.85 27.49 87.85 27.8 86.64 27.8 86.64 28.87 87.95 28.87 87.95 29.17 86.32 29.17"/><path class="cls-1" d="M89.69,29.21a.8.8,0,0,1-.88-.77h.32c0,.29.23.46.55.46s.59-.2.59-.48A.51.51,0,0,0,90,28c-.23-.13-.46-.23-.72-.36a.72.72,0,0,1-.4-.63.76.76,0,0,1,.83-.73.78.78,0,0,1,.86.76h-.33c0-.3-.23-.46-.54-.46s-.51.15-.51.43a.42.42,0,0,0,.27.38l.68.33a.8.8,0,0,1,.47.74.84.84,0,0,1-.91.78"/><polygon class="cls-1" points="92.42 26.59 92.42 29.17 92.09 29.17 92.09 26.59 91.35 26.59 91.35 26.28 93.16 26.28 93.16 26.59 92.42 26.59"/><rect class="cls-1" x="94.03" y="26.28" width="0.33" height="2.89"/><path class="cls-1" d="M96.81,27a.47.47,0,0,0-.53-.47.47.47,0,0,0-.54.47v1.4a.48.48,0,0,0,.54.47.47.47,0,0,0,.53-.47Zm-.53,2.18a.8.8,0,0,1-.86-.78V27a.78.78,0,0,1,.86-.76.79.79,0,0,1,.85.77v1.41a.79.79,0,0,1-.86.77"/><polygon class="cls-1" points="99.53 29.17 98.52 26.9 98.52 29.17 98.19 29.17 98.19 26.28 98.58 26.28 99.61 28.59 99.61 26.28 99.93 26.28 99.93 29.17 99.53 29.17"/><path class="cls-1" d="M103.79,27.06a.44.44,0,0,0-.49-.47h-.57v2.29h.58a.44.44,0,0,0,.48-.48Zm-.48,2.12h-.91v-2.9h.9a.74.74,0,0,1,.82.77V28.4a.74.74,0,0,1-.8.77"/><path class="cls-1" d="M107.48,26.57h-.06l-.4,1.48h.86Zm.71,2.6-.22-.81h-1l-.23.81h-.33l.79-2.89h.53l.8,2.89Z"/><polygon class="cls-1" points="111.13 26.28 110.38 29.18 109.85 29.18 109.09 26.28 109.41 26.28 110.08 28.88 110.14 28.88 110.81 26.28 111.13 26.28"/><polygon class="cls-1" points="112.01 29.17 112.01 26.28 113.64 26.28 113.64 26.59 112.33 26.59 112.33 27.49 113.55 27.49 113.55 27.8 112.33 27.8 112.33 28.87 113.64 28.87 113.64 29.17 112.01 29.17"/><polygon class="cls-1" points="115.96 29.17 114.95 26.9 114.95 29.17 114.62 29.17 114.62 26.28 115.01 26.28 116.03 28.59 116.03 26.28 116.35 26.28 116.35 29.17 115.96 29.17"/><rect class="cls-1" x="117.46" y="26.28" width="0.33" height="2.89"/><path class="cls-1" d="M120.28,27.06a.44.44,0,0,0-.5-.47h-.56v1.06h.57a.44.44,0,0,0,.49-.47Zm0,2.12-.6-1.22h-.5v1.22h-.33V26.28h.9a.75.75,0,0,1,.82.76v.14a.75.75,0,0,1-.55.74l.62,1.25Z"/><path class="cls-1" d="M124.42,27.06a.44.44,0,0,0-.49-.47h-.57v2.29h.58a.44.44,0,0,0,.49-.48Zm-.48,2.12H123v-2.9h.9a.75.75,0,0,1,.82.77V28.4a.74.74,0,0,1-.8.77"/><polygon class="cls-1" points="125.81 29.17 125.81 26.28 127.44 26.28 127.44 26.59 126.13 26.59 126.13 27.49 127.34 27.49 127.34 27.8 126.13 27.8 126.13 28.87 127.44 28.87 127.44 29.17 125.81 29.17"/><path class="cls-1" d="M129.81,27.06a.44.44,0,0,0-.5-.47h-.56v1.14h.57a.44.44,0,0,0,.49-.47Zm-.48,1h-.59v1.14h-.33v-2.9h.9a.74.74,0,0,1,.82.77v.21a.74.74,0,0,1-.8.78"/><path class="cls-1" d="M131.91,29.21a.78.78,0,0,1-.87-.78V26.28h.33v2.15a.53.53,0,0,0,1.06,0V26.28h.33v2.16a.77.77,0,0,1-.85.77"/><rect class="cls-1" x="133.83" y="26.28" width="0.33" height="2.89"/><path class="cls-1" d="M136,29.21a.8.8,0,0,1-.88-.77h.32c0,.29.23.46.55.46s.59-.2.59-.48a.51.51,0,0,0-.3-.45c-.22-.13-.46-.23-.71-.36a.72.72,0,0,1-.41-.63.76.76,0,0,1,.83-.73.78.78,0,0,1,.86.76h-.33c0-.3-.23-.46-.54-.46s-.51.15-.51.43a.42.42,0,0,0,.27.38l.68.33a.8.8,0,0,1,.47.74.84.84,0,0,1-.91.78"/><polygon class="cls-1" points="139.26 29.17 139.26 28.87 139.87 28.87 139.87 26.6 139.43 26.63 139.43 26.34 140.2 26.28 140.2 28.87 140.84 28.87 140.84 29.17 139.26 29.17"/><path class="cls-1" d="M142.69,26.56a.49.49,0,1,0,.53.49.48.48,0,0,0-.53-.49m0,1.28a.53.53,0,1,0,.56.53.51.51,0,0,0-.56-.53m0,1.37a.83.83,0,0,1-.88-.84.78.78,0,0,1,.39-.68.81.81,0,0,1-.36-.64.77.77,0,0,1,.85-.79.77.77,0,0,1,.47,1.44.81.81,0,0,1-.47,1.52"/><polygon class="cls-1" points="145.82 29.17 145.82 28.36 144.5 28.36 144.5 28.05 145.18 26.28 145.5 26.28 144.82 28.05 145.82 28.05 145.82 26.98 146.15 26.98 146.15 29.17 145.82 29.17"/><polygon class="cls-1" points="148.46 29.17 148.46 28.36 147.14 28.36 147.14 28.05 147.82 26.28 148.14 26.28 147.46 28.05 148.46 28.05 148.46 26.98 148.79 26.98 148.79 29.17 148.46 29.17"/><polygon class="cls-1" points="51.61 7.21 54.03 4.45 53.51 4.02 51.09 6.78 51.61 7.21"/><polygon class="cls-1" points="50.54 6.36 52.68 3.38 52.12 3 49.98 5.98 50.54 6.36"/><polygon class="cls-1" points="49.39 5.62 51.2 2.5 51.23 2.45 50.64 2.13 48.8 5.29 49.39 5.62"/><polygon class="cls-1" points="48.18 4.99 49.69 1.66 49.07 1.39 47.56 4.71 48.18 4.99"/><polygon class="cls-1" points="46.9 4.47 48.09 1.02 47.44 0.81 46.26 4.26 46.9 4.47"/><polygon class="cls-1" points="46.41 0.58 46.43 0.53 45.77 0.38 44.94 3.87 44.93 3.92 45.59 4.07 46.41 0.58"/><polygon class="cls-1" points="44.05 0.11 43.57 3.71 44.24 3.8 44.72 0.2 44.05 0.11"/><polygon class="cls-1" points="42.32 0 42.19 3.63 42.87 3.66 43 0.02 42.32 0"/><polygon class="cls-1" points="40.59 0.05 40.81 3.63 40.81 3.68 41.49 3.64 41.26 0.01 40.59 0.05"/><polygon class="cls-1" points="40.12 3.76 39.53 0.17 38.87 0.27 39.45 3.86 40.12 3.76"/><polygon class="cls-1" points="38.11 4.17 38.76 4 37.84 0.54 37.83 0.48 37.17 0.65 38.09 4.11 38.11 4.17"/><polygon class="cls-1" points="37.44 4.37 36.16 0.95 35.53 1.18 36.8 4.6 37.44 4.37"/><polygon class="cls-1" points="36.15 4.86 34.55 1.58 33.94 1.86 35.54 5.14 36.15 4.86"/><polygon class="cls-1" points="34.34 5.81 34.92 5.47 33.01 2.35 32.43 2.69 34.32 5.76 34.34 5.81"/><polygon class="cls-1" points="33.76 6.19 31.55 3.27 31 3.66 33.22 6.58 33.76 6.19"/><polygon class="cls-1" points="32.17 7.46 32.67 7.02 30.22 4.36 30.18 4.31 29.68 4.76 32.13 7.42 32.17 7.46"/><polygon class="cls-1" points="31.22 8.43 31.68 7.94 28.97 5.52 28.93 5.48 28.47 5.97 31.17 8.39 31.22 8.43"/><polygon class="cls-1" points="30.77 8.96 27.84 6.8 27.8 6.77 27.39 7.29 30.36 9.48 30.77 8.96"/><polygon class="cls-1" points="29.61 10.61 29.97 10.05 26.84 8.18 26.79 8.15 26.44 8.71 29.56 10.58 29.61 10.61"/><polygon class="cls-1" points="28.98 11.81 29.27 11.21 25.93 9.62 25.63 10.21 28.92 11.78 28.98 11.81"/><polygon class="cls-1" points="28.7 12.44 25.21 11.16 24.98 11.78 28.46 13.06 28.7 12.44"/><polygon class="cls-1" points="28.25 13.71 24.65 12.76 24.48 13.41 28.07 14.35 28.25 13.71"/><polygon class="cls-1" points="27.81 15.67 27.93 15.01 24.31 14.42 24.25 14.41 24.14 15.07 27.76 15.66 27.81 15.67"/><polygon class="cls-1" points="27.68 17.01 27.73 16.34 24.08 16.1 24.02 16.09 23.97 16.75 27.63 17 27.68 17.01"/><polygon class="cls-1" points="27.68 18.35 27.67 17.69 23.95 17.78 23.96 18.45 27.63 18.36 27.68 18.35"/><polygon class="cls-1" points="27.74 19.03 24.1 19.47 24.04 19.48 24.13 20.14 27.82 19.69 27.74 19.03"/><polygon class="cls-1" points="28.09 21.01 27.94 20.36 24.36 21.14 24.3 21.15 24.45 21.8 28.03 21.02 28.09 21.01"/><polygon class="cls-1" points="28.27 21.67 24.79 22.78 24.73 22.79 24.94 23.43 28.48 22.3 28.27 21.67"/><polygon class="cls-1" points="28.73 22.94 25.31 24.39 25.59 25 29 23.55 28.73 22.94"/><polygon class="cls-1" points="29.31 24.16 26.11 25.89 26.05 25.92 26.38 26.5 29.64 24.74 29.31 24.16"/><polygon class="cls-1" points="30 25.32 26.94 27.38 27.32 27.93 30.39 25.87 30 25.32"/><polygon class="cls-1" points="30.81 26.41 27.96 28.75 28.4 29.26 31.25 26.92 30.81 26.41"/><polygon class="cls-1" points="32.21 27.89 31.72 27.42 29.11 30.01 29.6 30.48 32.16 27.93 32.21 27.89"/><polygon class="cls-1" points="32.73 28.34 30.39 31.17 30.91 31.58 33.26 28.76 32.73 28.34"/><polygon class="cls-1" points="33.82 29.16 31.8 32.14 31.77 32.19 32.33 32.56 34.39 29.53 33.82 29.16"/><polygon class="cls-1" points="34.99 29.88 33.24 33.09 33.84 33.4 35.59 30.19 34.99 29.88"/><polygon class="cls-1" points="36.85 30.73 36.22 30.48 34.8 33.84 35.42 34.09 36.82 30.79 36.85 30.73"/><polygon class="cls-1" points="38.15 31.16 37.51 30.96 36.42 34.44 37.07 34.63 38.14 31.21 38.15 31.16"/><polygon class="cls-1" points="38.09 34.89 38.76 35.02 39.49 31.46 38.83 31.32 38.09 34.89"/><polygon class="cls-1" points="39.81 35.12 39.8 35.18 40.48 35.25 40.86 31.63 40.19 31.56 39.81 35.12"/><polygon class="cls-1" points="41.53 35.31 42.21 35.31 42.24 31.68 41.56 31.67 41.53 35.31"/><rect class="cls-1" x="43.1" y="31.61" width="0.68" height="3.64" transform="translate(-2.81 4.01) rotate(-5.12)"/><polygon class="cls-1" points="44.98 31.38 44.31 31.5 44.98 35.02 44.99 35.08 45.66 34.95 44.98 31.43 44.98 31.38"/><polygon class="cls-1" points="46.31 31.04 45.66 31.22 46.69 34.72 47.34 34.53 46.33 31.09 46.31 31.04"/><polygon class="cls-1" points="46.97 30.82 48.34 34.2 48.97 33.96 47.6 30.58 46.97 30.82"/><polygon class="cls-1" points="48.85 30 48.24 30.3 49.94 33.54 50.54 33.23 48.87 30.05 48.85 30"/><polygon class="cls-1" points="49.45 29.66 51.46 32.73 52.03 32.37 50.03 29.3 49.45 29.66"/><polygon class="cls-1" points="50.6 28.91 52.89 31.77 53.42 31.36 51.13 28.5 50.6 28.91"/><polygon class="cls-1" points="51.66 28.05 54.23 30.69 54.72 30.23 52.16 27.59 51.66 28.05"/><polygon class="cls-1" points="53.13 26.64 53.08 26.6 52.64 27.1 55.45 29.49 55.89 28.99 53.13 26.64"/></g></g></svg>