<?xml version="1.0" encoding="UTF-8" standalone="no"?>
<!DOCTYPE svg PUBLIC "-//W3C//DTD SVG 1.1//EN" "http://www.w3.org/Graphics/SVG/1.1/DTD/svg11.dtd">
<svg>
<metadata>
Created by FontForge 20090622 at Wed Feb 22 10:38:16 2017
 By deploy user
Published by Die Gestalten Verlag GmbH &amp; Co. KG, 2012
Copyright Â© by Binnenland, 2006, Designed by Mika Mischler / 2002-2006, revised and extended 2012 All rights reserved. This software may not be reproduced, used, displayed, modified, disclosed or transferred without the express written approval of (Binnenland).
</metadata>
<defs>
<font id="TSTAR-Bold" horiz-adv-x="535">
  <font-face font-family="TSTAR" font-weight="700" font-stretch="normal" units-per-em="1000" panose-1="2 0 8 6 3 0 0 2 0 4" ascent="774" descent="-226" x-height="525" cap-height="713" bbox="-36 -226 1096 964" underline-thickness="51" underline-position="-89" unicode-range="U+0020-U+FB02"/>
<missing-glyph horiz-adv-x="250"/>
    <glyph glyph-name=".notdef" horiz-adv-x="250"/>
    <glyph glyph-name=".null" horiz-adv-x="0"/>
    <glyph glyph-name="nonmarkingreturn" horiz-adv-x="333"/>
    <glyph glyph-name="space" unicode=" " horiz-adv-x="250"/>
    <glyph glyph-name="exclam" unicode="!" horiz-adv-x="262" d="M179 188h-95v525h95v-525zM191 0h-120v120h120v-120z"/>
    <glyph glyph-name="quotedbl" unicode="&quot;" horiz-adv-x="368" d="M156 547h-85v206h85v-206zM297 547h-85v206h85v-206z"/>
    <glyph glyph-name="numbersign" unicode="#" horiz-adv-x="648" d="M577 406h-108l-17 -103h96v-86h-108l-33 -198h-88l29 198h-100l-34 -198h-89l31 198h-85v86h99l17 103h-86v85h97l32 182h90l-28 -182h100l32 182h88l-30 -182h95v-85zM379 406h-101l-18 -103h102z"/>
    <glyph glyph-name="dollar" unicode="$" horiz-adv-x="514" d="M472 188q0 -73 -47.5 -126t-121.5 -67v-90h-93v89q-77 12 -122.5 65.5t-45.5 128.5h98q0 -48 31 -74.5t82 -26.5q56 0 89 28.5t33 74.5q0 61 -61 97q-48 28 -163 85q-43 21 -70 65t-27 97q0 70 42.5 119t113.5 62v90h93v-90q72 -14 116 -65.5t44 -123.5h-97 q0 46 -31 72.5t-80 26.5q-45 0 -74.5 -25t-29.5 -68q0 -52 54 -80l155 -79q112 -60 112 -185z"/>
    <glyph glyph-name="percent" unicode="%" horiz-adv-x="835" d="M764 134q0 -61 -38 -97.5t-100 -36.5q-63 0 -100.5 36.5t-37.5 97.5v97q0 62 38 99t100 37q63 0 100.5 -36.5t37.5 -99.5v-97zM673 134v97q0 47 -47 47q-22 0 -34.5 -12.5t-12.5 -34.5v-97q0 -45 47 -45q22 0 34.5 12t12.5 33zM346 480q0 -61 -38 -97.5t-100 -36.5 q-63 0 -100.5 36.5t-37.5 97.5v97q0 62 38 99t100 37q63 0 100.5 -36.5t37.5 -99.5v-97zM255 480v97q0 47 -47 47q-22 0 -34.5 -12.5t-12.5 -34.5v-97q0 -45 47 -45q22 0 34.5 12t12.5 33zM584 756l-263 -807h-77l265 807h75z"/>
    <glyph glyph-name="ampersand" unicode="&amp;" horiz-adv-x="642" d="M571 173l-60 -75l-32 28q-47 -135 -202 -135q-36 0 -72.5 12t-69.5 35.5t-53.5 65.5t-20.5 96q0 117 116 186q-1 1 -3.5 2.5t-4.5 3t-3.5 3l-2.5 2.5l-1 1q-70 61 -70 142q0 47 18.5 83t48 56t61.5 29.5t65 9.5q90 0 147.5 -56t57.5 -151h-96q0 52 -30 82t-79 30 q-98 0 -98 -85q0 -19 9 -36t17.5 -26t27.5 -25zM277 86q49 0 84 25.5t36 84.5l-150 127q-15 -7 -26 -14q-64 -41 -64 -110q0 -60 37 -86.5t83 -26.5z"/>
    <glyph glyph-name="quotesingle" unicode="'" horiz-adv-x="227" d="M156 547h-85v206h85v-206z"/>
    <glyph glyph-name="parenleft" unicode="(" horiz-adv-x="299" d="M228 -21l-59 -69q-64 60 -79 89q-19 37 -19 95v500q0 60 19 94q3 6 7 12.5t9.5 13.5t9.5 11.5t12.5 12.5l12 11.5l14 14l14.5 14.5l58 -68q-43 -48 -51 -64q-11 -24 -11 -57v-490q0 -35 11 -59q12 -22 52 -61z"/>
    <glyph glyph-name="parenright" unicode=")" horiz-adv-x="301" d="M230 94q0 -59 -19 -95q-11 -22 -78 -89l-62 71q43 37 54 59t11 59v490q0 35 -11 57q-10 20 -52 63l60 67q61 -60 74 -82l4 -6q19 -37 19 -94v-500z"/>
    <glyph glyph-name="asterisk" unicode="*" horiz-adv-x="577" d="M454 466l-44 -73l-84 51l4 -99h-85l2 98l-82 -50l-42 72l84 46l-84 47l42 73l82 -50l-2 98h85l-4 -100l84 52l42 -74l-83 -45z"/>
    <glyph glyph-name="plus" unicode="+" horiz-adv-x="550" d="M485 236h-165v-170h-91v170h-164v90h164v159h91v-159h165v-90z"/>
    <glyph glyph-name="comma" unicode="," horiz-adv-x="312" d="M117 -103h-95l89 222h111z"/>
    <glyph glyph-name="hyphen" unicode="-" horiz-adv-x="449" d="M378 236h-307v90h307v-90z"/>
    <glyph glyph-name="period" unicode="." horiz-adv-x="262" d="M195 0h-128v128h128v-128z"/>
    <glyph glyph-name="slash" unicode="/" horiz-adv-x="497" d="M426 747l-260 -797h-95l261 797h94z"/>
    <glyph glyph-name="zero" unicode="0" horiz-adv-x="504" d="M443 182q0 -28 -8 -57t-27.5 -61t-60.5 -52.5t-98 -20.5q-55 0 -95 20.5t-59 52.5t-27 61.5t-8 57.5v347q0 21 4.5 43.5t17.5 49.5t33.5 47.5t56 34.5t81.5 14q56 0 96 -20t59 -52t27 -61t8 -57v-347zM347 184v344q0 56 -28.5 76.5t-65.5 20.5q-22 0 -41.5 -5.5 t-37.5 -29t-18 -62.5v-344q0 -56 30 -77.5t67 -21.5q36 0 65 21.5t29 77.5z"/>
    <glyph glyph-name="one" unicode="1" horiz-adv-x="508" d="M441 0h-371v95h136v523l-99 -8v92l195 16v-623h139v-95z"/>
    <glyph glyph-name="two" unicode="2" horiz-adv-x="499" d="M451 0h-403v149q0 88 91 162q27 22 87.5 58t90.5 61q38 32 38 87q0 52 -28 80t-78 28q-16 0 -31.5 -4.5t-33 -15.5t-28.5 -35.5t-12 -59.5h-96q0 24 5.5 49.5t20 55t36 52t58 37.5t81.5 15q89 0 145.5 -56.5t56.5 -144.5q0 -95 -71 -157q-30 -25 -94 -63.5t-93 -61.5 q-49 -41 -49 -92v-49h307v-95z"/>
    <glyph glyph-name="three" unicode="3" horiz-adv-x="502" d="M436 627l-127 -195q76 -18 109 -69t33 -107v-70q0 -28 -10 -58.5t-31 -62.5t-63 -53t-97 -21q-57 0 -98.5 19t-62 49.5t-30 61t-9.5 62.5h96q0 -54 32.5 -76t70.5 -22q40 0 73 22.5t33 78.5v68q0 29 -11.5 49.5t-29.5 29t-34 12t-32 3.5h-50v75l125 195h-246v95h359v-86z "/>
    <glyph glyph-name="four" unicode="4" horiz-adv-x="512" d="M455 0h-96v194h-302v87l160 432h95l-156 -424h203v256h96v-545z"/>
    <glyph glyph-name="five" unicode="5" horiz-adv-x="500" d="M455 190q0 -85 -60.5 -142t-145.5 -57q-86 0 -145.5 53.5t-59.5 135.5h96q0 -43 29 -69t80 -26q45 0 77.5 28t32.5 76v64q0 45 -28 75.5t-80 30.5h-179v82l20 272h329v-95h-240l-12 -166h84q82 0 142 -55t60 -142v-65z"/>
    <glyph glyph-name="six" unicode="6" horiz-adv-x="502" d="M451 180q0 -26 -9.5 -55.5t-30.5 -61t-63.5 -52t-99.5 -20.5q-44 0 -80 13.5t-57.5 34.5t-36.5 47t-20.5 49.5t-5.5 43.5v348q0 27 10.5 57t32 61t63.5 51.5t98 20.5q45 0 79.5 -15.5t54.5 -38t33 -52.5t18 -55t5 -50h-94q-1 67 -30 92t-66 25q-18 0 -34 -3.5t-34 -13 t-29 -30.5t-11 -51v-101q50 36 108 36q55 0 96.5 -20t62.5 -51t30.5 -61.5t9.5 -58.5v-89zM355 183v85q0 30 -11.5 51t-29.5 30.5t-34 13.5t-32 4q-22 0 -43 -6t-41 -30t-20 -63v-85q0 -29 11 -50t28.5 -30.5t33.5 -13.5t31 -4q16 0 32 3.5t34 13t29.5 30.5t11.5 51z"/>
    <glyph glyph-name="seven" unicode="7" horiz-adv-x="500" d="M460 633l-228 -633h-100l225 618h-317v95h420v-80z"/>
    <glyph glyph-name="eight" unicode="8" horiz-adv-x="510" d="M468 203q0 -33 -10 -66.5t-32 -68t-66.5 -56t-104.5 -21.5q-59 0 -103 21.5t-66.5 56t-33 68.5t-10.5 66q0 42 22.5 89t68.5 74q-38 25 -61 68.5t-23 84.5q0 25 5.5 50t20 52.5t37 48.5t59.5 34.5t84 13.5q57 0 99.5 -20t64.5 -51.5t32 -63.5t10 -64q0 -40 -24 -84.5 t-65 -68.5q50 -26 73 -72.5t23 -90.5zM372 203q0 53 -33.5 85t-83.5 32q-51 0 -84 -32t-33 -85q0 -35 12.5 -60t32.5 -36.5t37.5 -16.5t34.5 -5t34.5 4.5t37.5 16t32.5 37t12.5 60.5zM365 519q0 32 -12 54t-30.5 32.5t-35 14.5t-32.5 4t-32.5 -4t-35 -14.5t-30.5 -32.5 t-12 -54q0 -50 30.5 -79.5t79.5 -29.5t79.5 30t30.5 79z"/>
    <glyph glyph-name="nine" unicode="9" horiz-adv-x="502" d="M451 182q0 -27 -9.5 -57t-30 -61.5t-62.5 -52t-99 -20.5q-55 0 -95 22t-60 57t-29 68.5t-9 64.5h96q0 -66 30 -92t68 -26q40 0 72 21.5t32 77.5v102q-54 -36 -108 -36q-45 0 -80.5 14t-57 35t-35.5 48t-19 50.5t-5 44.5v87q0 27 9.5 56.5t30.5 61t63 51.5t98 20 q55 0 96.5 -20t62.5 -51t31 -60.5t10 -55.5v-349zM355 443v84q0 39 -20 62.5t-40.5 29t-43.5 5.5t-43.5 -5.5t-41 -29t-20.5 -62.5v-84q0 -30 11 -51.5t29 -31t33.5 -13.5t31.5 -4t31.5 4t33 13.5t28.5 31t11 51.5z"/>
    <glyph glyph-name="colon" unicode=":" horiz-adv-x="262" d="M195 0h-128v128h128v-128zM195 302h-128v128h128v-128z"/>
    <glyph glyph-name="semicolon" unicode=";" horiz-adv-x="277" d="M204 302h-128v128h128v-128zM92 -103h-95l89 222h111z"/>
    <glyph glyph-name="less" unicode="&lt;" d="M465 0h-131l-263 263l260 262h131l-260 -262z"/>
    <glyph glyph-name="equal" unicode="=" horiz-adv-x="584" d="M477 333h-370v90h370v-90zM477 158h-370v90h370v-90z"/>
    <glyph glyph-name="greater" unicode="&gt;" horiz-adv-x="537" d="M466 262l-265 -262h-130l263 263l-260 262h130z"/>
    <glyph glyph-name="question" unicode="?" horiz-adv-x="433" d="M417 521q0 -71 -45 -121q-16 -18 -53.5 -49.5t-53.5 -48.5q-21 -23 -21 -67v-47h-97v44q0 75 48 129q14 16 51 45.5t53 49.5q21 24 21 64q0 103 -102 103q-16 0 -30.5 -4t-32 -15t-29 -35.5t-13.5 -60.5h-97q0 31 10 64.5t31.5 67.5t63.5 56t97 22q89 0 144 -54.5 t55 -142.5zM257 0h-119v120h119v-120z"/>
    <glyph glyph-name="at" unicode="@" horiz-adv-x="1039" d="M655 -80l30 -78q-93 -33 -175 -33q-189 0 -317 128.5t-128 319.5q0 123 63 230.5t170.5 171.5t230.5 64q186 0 315.5 -120.5t129.5 -303.5q0 -126 -71 -212.5t-164 -86.5q-46 0 -83 19.5t-50 53.5q-23 -29 -65 -46.5t-85 -17.5q-83 0 -126.5 52.5t-27.5 134.5l29 153 q15 79 75.5 128.5t144.5 49.5q27 0 53 -11.5t41 -26.5l6 30h89l-66 -334q-21 -102 63 -102q65 0 107.5 62.5t42.5 153.5q0 148 -102.5 244t-255.5 96q-151 0 -264 -114t-113 -268q0 -157 103 -260.5t255 -103.5q58 0 145 27zM588 197l29 153q8 40 -12.5 66.5t-63.5 26.5 q-46 0 -79.5 -27.5t-42.5 -73.5l-29 -153q-8 -42 11.5 -69t64.5 -27q46 0 79.5 28.5t42.5 75.5z"/>
    <glyph glyph-name="A" unicode="A" horiz-adv-x="547" d="M531 0h-99l-50 194h-215l-51 -194h-100l186 713h140zM357 290l-82 322l-85 -322h167z"/>
    <glyph glyph-name="B" unicode="B" horiz-adv-x="544" d="M488 194q0 -22 -4.5 -45t-18 -50.5t-34 -48.5t-57 -35.5t-83.5 -14.5h-220v713h215q47 0 83 -14t56 -34.5t32.5 -48t16.5 -50t4 -44.5v-12q0 -35 -16 -76t-51 -66q42 -24 59.5 -68t17.5 -82v-24zM379 512v9q0 96 -95 96h-116v-202h122q89 0 89 97zM391 196v21 q0 102 -97 102h-126v-223h121q17 0 32 3.5t32 13.5t27.5 31t10.5 52z"/>
    <glyph glyph-name="C" unicode="C" horiz-adv-x="518" d="M474 188q0 -28 -10 -59t-31.5 -63.5t-64.5 -53.5t-101 -21q-57 0 -99.5 21t-64.5 54t-32 64t-10 59v337q0 21 5.5 44.5t20 50.5t36.5 48.5t60 35.5t85 14q56 0 98.5 -21t64.5 -52.5t32.5 -62.5t10.5 -58h-97q0 24 -8.5 43t-20 29t-27.5 16.5t-28.5 8.5t-24.5 2 q-17 0 -33 -3.5t-35 -13.5t-30.5 -31t-11.5 -52v-335q0 -31 11.5 -53t30.5 -32t35.5 -14t32.5 -4t32 4t34.5 14t30.5 31.5t12 52.5h97z"/>
    <glyph glyph-name="D" unicode="D" horiz-adv-x="544" d="M483 519v-323q0 -28 -8 -58t-27.5 -63t-60 -54t-97.5 -21h-219v713h215q58 0 99.5 -20.5t61.5 -53.5t28 -62.5t8 -57.5zM386 197v319q0 58 -30.5 79.5t-69.5 21.5h-118v-521h120q38 0 68 21.5t30 79.5z"/>
    <glyph glyph-name="E" unicode="E" horiz-adv-x="508" d="M467 0h-396v713h396v-96h-299v-194h277v-96h-277v-231h299v-96z"/>
    <glyph glyph-name="F" unicode="F" horiz-adv-x="498" d="M467 617h-299v-194h277v-96h-277v-327h-97v713h396v-96z"/>
    <glyph glyph-name="G" unicode="G" d="M474 188q0 -28 -10.5 -59t-32.5 -63.5t-65 -53.5t-100 -21q-46 0 -83 14.5t-59 36.5t-37 49.5t-20.5 51.5t-5.5 46v337q0 21 5.5 44.5t20 50.5t36.5 48.5t60 35.5t85 14q56 0 98.5 -20t64.5 -51.5t32.5 -62.5t10.5 -60h-98q0 30 -11.5 51t-30 30.5t-34.5 13.5t-32 4 t-32.5 -4t-35.5 -13.5t-30.5 -31t-11.5 -51.5v-335q0 -57 35.5 -80t74.5 -23q22 0 44 6.5t43.5 31.5t21.5 65v118h-123v96h220v-215z"/>
    <glyph glyph-name="H" unicode="H" horiz-adv-x="568" d="M497 0h-97v326h-232v-326h-97v713h97v-291h232v291h97v-713z"/>
    <glyph glyph-name="I" unicode="I" horiz-adv-x="240" d="M71 713h97v-713h-97v713z"/>
    <glyph glyph-name="J" unicode="J" horiz-adv-x="451" d="M385 187q0 -93 -49 -144.5t-138 -51.5q-87 0 -137 54t-50 142h97q0 -56 27 -78.5t64 -22.5q36 0 62.5 21t26.5 74v436h-205v96h302v-526z"/>
    <glyph glyph-name="K" unicode="K" horiz-adv-x="524" d="M508 0h-111l-183 307l-46 -69v-238h-97v713h97v-302l215 302h113l-225 -321z"/>
    <glyph glyph-name="L" unicode="L" horiz-adv-x="472" d="M466 0h-395v713h97v-617h298v-96z"/>
    <glyph glyph-name="M" unicode="M" horiz-adv-x="654" d="M168 0h-97v713h112l144 -357l142 357h114v-713h-97v511l-120 -299h-78l-120 300v-512z"/>
    <glyph glyph-name="N" unicode="N" horiz-adv-x="559" d="M488 0h-109l-211 495v-495h-97v713h107l213 -503v503h97v-713z"/>
    <glyph glyph-name="O" unicode="O" d="M474 188q0 -28 -10 -59t-31.5 -63.5t-64.5 -53.5t-101 -21q-57 0 -99.5 21t-64.5 54t-32 64t-10 59v337q0 21 5.5 44.5t20 50.5t36.5 48.5t60 35.5t85 14q56 0 98.5 -21t64.5 -52.5t32.5 -62.5t10.5 -58v-337zM377 189v335q0 31 -11.5 52t-30.5 31t-35 13.5t-32 3.5 q-17 0 -33 -3.5t-35 -13.5t-30.5 -31t-11.5 -52v-335q0 -31 11.5 -53t30.5 -32t35.5 -14t32.5 -4t32 4t34.5 14t30.5 32t12 53z"/>
    <glyph glyph-name="P" unicode="P" horiz-adv-x="519" d="M483 468q0 -22 -4.5 -45.5t-17.5 -51.5t-33.5 -49t-56 -35.5t-81.5 -14.5h-122v-272h-97v713h215q58 0 99.5 -21t61.5 -54t28 -62.5t8 -57.5v-50zM386 469v47q0 31 -10.5 52.5t-27.5 31t-32 13.5t-32 4h-116v-249h118q23 0 43 6t38.5 30t18.5 65z"/>
    <glyph glyph-name="Q" unicode="Q" d="M221 -104v99q-44 8 -77 31t-50 52.5t-25 57.5t-8 53v336q0 21 5.5 44.5t20 50.5t36.5 48.5t60 35.5t85 14q56 0 98.5 -21t64.5 -52.5t32.5 -62.5t10.5 -58v-336q0 -25 -8 -52.5t-25 -57.5t-51 -53t-79 -30v-99h-90zM377 189v334q0 31 -11.5 52t-30.5 31t-35 13.5t-32 3.5 q-17 0 -33 -3.5t-35 -13.5t-30.5 -31t-11.5 -52v-334q0 -74 63 -96v128h90v-129q66 22 66 97z"/>
    <glyph glyph-name="R" unicode="R" horiz-adv-x="551" d="M508 0h-110l-136 291h-94v-291h-97v713h215q47 0 84 -14.5t58 -35.5t34.5 -48.5t18 -50.5t4.5 -45v-33q0 -31 -9 -63.5t-37.5 -68.5t-73.5 -52zM388 487v29q0 31 -10.5 52.5t-28 31t-33 13.5t-32.5 4h-116v-230h118q17 0 32 3.5t32 13.5t27.5 31t10.5 52z"/>
    <glyph glyph-name="S" unicode="S" horiz-adv-x="514" d="M472 188q0 -85 -62.5 -141t-155.5 -56q-95 0 -153.5 56t-58.5 141h97q0 -48 31.5 -75t82.5 -27q55 0 88.5 29t33.5 75q0 60 -62 96q-38 22 -162 85q-44 22 -70.5 66t-26.5 97q0 81 56.5 133t144.5 52q92 0 150 -54.5t58 -138.5h-98q0 46 -30.5 72t-79.5 26 q-45 0 -74.5 -24.5t-29.5 -67.5q0 -52 55 -80l154 -79q112 -61 112 -185z"/>
    <glyph glyph-name="T" unicode="T" horiz-adv-x="468" d="M451 617h-169v-617h-97v617h-168v96h434v-96z"/>
    <glyph glyph-name="U" unicode="U" d="M474 188q0 -30 -9.5 -60.5t-30.5 -63t-64 -53t-102 -20.5q-47 0 -85 14t-60 35.5t-36.5 49t-20 52t-5.5 47.5v524h97v-524q0 -31 12 -53t30.5 -32t35 -14t32.5 -4t32.5 4t35 14t30 32t11.5 53v524h97v-525z"/>
    <glyph glyph-name="V" unicode="V" horiz-adv-x="530" d="M415 713h98l-177 -713h-140l-179 713h99l148 -616z"/>
    <glyph glyph-name="W" unicode="W" horiz-adv-x="781" d="M764 713l-149 -713h-99l-125 511l-128 -511h-98l-148 713h98l106 -539l129 539h81l127 -537l107 537h99z"/>
    <glyph glyph-name="X" unicode="X" horiz-adv-x="513" d="M496 0h-112l-128 257l-127 -257h-112l184 357l-183 356h110l127 -257l131 257h108l-184 -354z"/>
    <glyph glyph-name="Y" unicode="Y" horiz-adv-x="506" d="M489 713l-188 -455v-258h-97v260l-187 453h106l130 -327l131 327h105z"/>
    <glyph glyph-name="Z" unicode="Z" horiz-adv-x="450" d="M429 0h-408v83l281 534h-267v96h379v-81l-280 -537h295v-95z"/>
    <glyph glyph-name="bracketleft" unicode="[" horiz-adv-x="313" d="M242 -77h-171v828h171v-89h-81v-650h81v-89z"/>
    <glyph glyph-name="backslash" unicode="\" horiz-adv-x="496" d="M425 -52h-93l-261 796h94z"/>
    <glyph glyph-name="bracketright" unicode="]" horiz-adv-x="313" d="M242 -77h-171v89h81v650h-81v89h171v-828z"/>
    <glyph glyph-name="asciicircum" unicode="^" horiz-adv-x="513" d="M442 438h-102l-83 153l-81 -153h-105l148 275h79z"/>
    <glyph glyph-name="underscore" unicode="_" horiz-adv-x="502" d="M515 -150h-528v85h528v-85z"/>
    <glyph glyph-name="grave" unicode="`" horiz-adv-x="341" d="M266 593h-92l-100 169h109z"/>
    <glyph glyph-name="a" unicode="a" horiz-adv-x="509" d="M442 359v-359h-95v40q-17 -23 -51 -36t-71 -13q-70 0 -124.5 45t-54.5 128q0 74 51 113t135 39h115v40q0 83 -94 83q-84 0 -94 -71h-95q8 85 63.5 124.5t124.5 39.5q78 0 134 -42t56 -131zM347 185v46h-114q-44 0 -68 -18t-24 -48q0 -43 27 -62.5t69 -19.5q43 0 76.5 29 t33.5 73z"/>
    <glyph glyph-name="b" unicode="b" horiz-adv-x="522" d="M461 183q0 -87 -53 -140t-141 -53q-27 0 -56.5 13t-44.5 31v-34h-95v713h95v-224q15 19 44 31t57 12q89 0 141.5 -51.5t52.5 -139.5v-158zM366 183v158q0 98 -99 98q-48 0 -74.5 -25.5t-26.5 -72.5v-158q0 -100 101 -100q47 0 73 27t26 73z"/>
    <glyph glyph-name="c" unicode="c" horiz-adv-x="499" d="M260 532q82 0 134.5 -48t62.5 -133h-97q-16 88 -100 88q-49 0 -76.5 -26t-27.5 -72v-158q0 -41 24 -70.5t80 -29.5q40 0 66 23.5t33 65.5h98q-10 -85 -63 -133.5t-134 -48.5q-90 0 -144.5 52.5t-54.5 140.5v158q0 87 55 139t144 52z"/>
    <glyph glyph-name="d" unicode="d" horiz-adv-x="525" d="M156 341v-158q0 -46 27 -73t74 -27q56 0 78.5 29t22.5 71v158q0 46 -27 72t-74 26q-56 0 -78.5 -29t-22.5 -69zM61 183v158q0 88 53 139.5t143 51.5q30 0 59 -13t42 -30v224h95v-713h-95v32q-13 -16 -42.5 -29t-58.5 -13q-88 0 -142 53t-54 140z"/>
    <glyph glyph-name="e" unicode="e" horiz-adv-x="520" d="M459 341v-113h-303v-45q0 -41 24 -70.5t80 -29.5q40 0 66.5 24t33.5 65h97q-10 -85 -63 -133.5t-134 -48.5q-90 0 -144.5 52.5t-54.5 140.5v158q0 87 55 139t144 52q90 0 144.5 -51.5t54.5 -139.5zM364 320v21q0 40 -24 69t-80 29q-49 0 -76.5 -26t-27.5 -72v-21h208z "/>
    <glyph glyph-name="f" unicode="f" horiz-adv-x="323" d="M311 432h-118v-432h-95v432h-86v93h86v34q0 72 37 113t109 41h57v-93h-65q-17 0 -30 -11.5t-13 -37.5v-46h118v-93z"/>
    <glyph glyph-name="g" unicode="g" horiz-adv-x="523" d="M356 -39v71q-15 -17 -42.5 -29.5t-56.5 -12.5q-90 0 -143 52t-53 141v158q0 87 53.5 139t142.5 52q29 0 57.5 -12t41.5 -28v33h95v-564q0 -101 -54.5 -144t-139.5 -43q-69 0 -119.5 38.5t-64.5 105.5h99q9 -27 32 -43t53 -16q99 0 99 102zM356 183v158q0 98 -99 98 q-47 0 -74 -26t-27 -72v-158q0 -42 22.5 -71t78.5 -29q46 0 72.5 27t26.5 73z"/>
    <glyph glyph-name="h" unicode="h" horiz-adv-x="529" d="M462 0h-95v341q0 20 -3 34.5t-11.5 30.5t-28 24.5t-48.5 8.5q-46 0 -78 -27t-32 -69v-343h-95v713h95v-218q43 37 110 37q91 0 138.5 -50t47.5 -141v-341z"/>
    <glyph glyph-name="i" unicode="i" horiz-adv-x="253" d="M174 0h-95v525h95v-525zM180 594h-107v122h107v-122z"/>
    <glyph glyph-name="j" unicode="j" horiz-adv-x="241" d="M162 525v-609q0 -72 -36.5 -107t-94.5 -35h-40v93h35q41 0 41 44v614h95zM168 594h-107v122h107v-122z"/>
    <glyph glyph-name="k" unicode="k" horiz-adv-x="511" d="M487 0h-113l-147 232l-61 -66v-166h-95v713h95v-411l203 223h125l-204 -224z"/>
    <glyph glyph-name="l" unicode="l" horiz-adv-x="255" d="M69 141v572h95v-576q0 -44 41 -44h35v-93h-40q-58 0 -94.5 34.5t-36.5 106.5z"/>
    <glyph glyph-name="m" unicode="m" horiz-adv-x="728" d="M661 376v-376h-95v369q0 70 -60 70q-93 0 -93 -109v-330h-94v366q0 31 -15 52t-44 21q-94 0 -94 -110v-329h-95v525h95v-29q38 36 99 36q70 0 109 -54q49 54 136 54q76 0 113.5 -47.5t37.5 -108.5z"/>
    <glyph glyph-name="n" unicode="n" horiz-adv-x="529" d="M462 0h-95v341q0 20 -3 34.5t-11.5 30.5t-28 24.5t-48.5 8.5q-46 0 -78 -27t-32 -69v-343h-95v525h95v-30q46 37 110 37q90 0 138 -50.5t48 -140.5v-341z"/>
    <glyph glyph-name="o" unicode="o" horiz-adv-x="520" d="M459 183q0 -87 -55.5 -140t-143.5 -53q-90 0 -144.5 52.5t-54.5 140.5v158q0 87 55 139t144 52q90 0 144.5 -51.5t54.5 -139.5v-158zM364 183v158q0 40 -24 69t-80 29q-49 0 -76.5 -26t-27.5 -72v-158q0 -41 24 -70.5t80 -29.5q48 0 76 27t28 73z"/>
    <glyph glyph-name="p" unicode="p" horiz-adv-x="523" d="M462 183q0 -89 -52.5 -141t-142.5 -52q-28 0 -57 13.5t-44 29.5v-259h-95v751h95v-34q37 41 101 41q89 0 142 -52t53 -139v-158zM367 183v158q0 46 -26.5 72t-73.5 26q-56 0 -78.5 -28.5t-22.5 -69.5v-158q0 -46 27 -73t74 -27q100 0 100 100z"/>
    <glyph glyph-name="q" unicode="q" horiz-adv-x="523" d="M156 341v-158q0 -42 22.5 -71t78.5 -29q46 0 72.5 27t26.5 73v158q0 98 -99 98q-47 0 -74 -26t-27 -72zM61 183v158q0 87 53.5 139t142.5 52q57 0 99 -32v25h95v-751h-95v257q-12 -16 -38.5 -28.5t-60.5 -12.5q-90 0 -143 52t-53 141z"/>
    <glyph glyph-name="r" unicode="r" horiz-adv-x="318" d="M296 432h-53q-29 0 -53 -25.5t-24 -76.5v-330h-95v525h95v-47q24 47 90 47h40v-93z"/>
    <glyph glyph-name="s" unicode="s" horiz-adv-x="479" d="M439 161q0 -86 -57 -127.5t-144 -41.5q-84 0 -138.5 48t-58.5 132h96q4 -42 31 -65t71 -23q43 0 74.5 17.5t31.5 53.5q0 38 -53 54q-20 6 -125 34q-53 14 -85.5 48t-32.5 86q0 76 53.5 115t133.5 39q81 0 134.5 -44.5t60.5 -123.5h-98q-13 76 -99 76q-38 0 -64.5 -14.5 t-26.5 -45.5q0 -33 49 -46q3 -1 55.5 -15t77.5 -22q50 -16 82 -50.5t32 -84.5z"/>
    <glyph glyph-name="t" unicode="t" horiz-adv-x="350" d="M12 432v93h95v188h95v-188h109v-93h-109v-295q0 -44 41 -44h70v-93h-74q-60 0 -96 34.5t-36 106.5v291h-95z"/>
    <glyph glyph-name="u" unicode="u" horiz-adv-x="532" d="M460 0h-95v34q-15 -17 -44 -30t-58 -13q-90 0 -143 52t-53 140v342h95v-342q0 -41 22.5 -70t78.5 -29q45 0 73.5 26t28.5 68v347h95v-525z"/>
    <glyph glyph-name="v" unicode="v" horiz-adv-x="456" d="M15 525h100l113 -411l114 411h99l-153 -525h-120z"/>
    <glyph glyph-name="w" unicode="w" horiz-adv-x="684" d="M655 525l-124 -525h-90l-99 379l-100 -379h-88l-125 525h98l78 -382l96 382h82l96 -382l78 382h98z"/>
    <glyph glyph-name="x" unicode="x" horiz-adv-x="470" d="M458 0h-112l-110 178l-114 -178h-110l168 262l-168 263h110l113 -181l112 181h108l-167 -264z"/>
    <glyph glyph-name="y" unicode="y" horiz-adv-x="450" d="M12 525h100l113 -411l114 411h99l-181 -622q-23 -79 -60 -104t-107 -25h-35v93h54q47 0 59 44l24 89h-27z"/>
    <glyph glyph-name="z" unicode="z" horiz-adv-x="437" d="M405 0h-373v80l237 352h-229v93h345v-80l-237 -352h257v-93z"/>
    <glyph glyph-name="braceleft" unicode="{" horiz-adv-x="312" d="M161 618v-549q0 -45 40 -45h40v-89h-44q-126 0 -126 126v565q0 126 126 126h44v-89h-40q-40 0 -40 -45z"/>
    <glyph glyph-name="bar" unicode="|" horiz-adv-x="232" d="M161 -52h-90v798h90v-798z"/>
    <glyph glyph-name="braceright" unicode="}" horiz-adv-x="315" d="M244 626v-567q0 -66 -30.5 -95.5t-96.5 -29.5h-46v89h42q24 0 32.5 11t8.5 34v549q0 23 -8.5 34t-32.5 11h-42v89h46q66 0 96.5 -29.5t30.5 -95.5z"/>
    <glyph glyph-name="asciitilde" unicode="~" horiz-adv-x="545" d="M406 334l68 -53q-49 -46 -75.5 -60.5t-57.5 -14.5q-25 0 -70.5 21.5t-71.5 21.5q-13 0 -25.5 -8t-38.5 -34l-64 53q46 46 72.5 61t57.5 15q25 0 70.5 -22t71.5 -22q20 0 63 42z"/>
    <glyph glyph-name="exclamdown" unicode="¡" horiz-adv-x="262" d="M83 352h95v-525h-95v525zM71 540h120v-120h-120v120z"/>
    <glyph glyph-name="cent" unicode="¢" horiz-adv-x="499" d="M305 -137h-90v131q-72 12 -113 62t-41 127v158q0 74 42 124t112 63v133h90v-133q63 -13 103.5 -59t48.5 -118h-97q-16 88 -100 88q-49 0 -76.5 -26t-27.5 -72v-158q0 -41 24 -70.5t80 -29.5q40 0 66 23.5t33 65.5h98q-9 -72 -49 -119t-103 -59v-131z"/>
    <glyph glyph-name="sterling" unicode="£" horiz-adv-x="500" d="M458 529h-95q0 54 -30 74t-68 20q-37 0 -64.5 -20.5t-27.5 -72.5v-114h189v-94h-189v-227h284v-95h-380v322h-35v94h35v113q0 83 51.5 135.5t136.5 52.5t139 -52.5t54 -135.5z"/>
    <glyph glyph-name="yen" unicode="¥" horiz-adv-x="530" d="M446 101h-133v-101h-95v101h-134v88h134v54h-134v88h103l-155 382h101l131 -330l133 330h101l-157 -382h105v-88h-133v-54h133v-88z"/>
    <glyph glyph-name="brokenbar" unicode="¦" horiz-adv-x="232" d="M164 393h-95v326h95v-326zM164 -26h-95v327h95v-327z"/>
    <glyph glyph-name="section" unicode="§" horiz-adv-x="544" d="M78 375q0 54 29 91q-23 35 -23 74q0 80 53.5 119t133.5 39q87 0 140.5 -45.5t53.5 -126.5h-93q0 37 -26 57.5t-77 20.5q-94 0 -94 -64q0 -15 11.5 -27t29.5 -17l78.5 -17t61.5 -13q52 -12 84.5 -49t32.5 -91q0 -51 -28 -92q21 -27 21 -74q0 -87 -55.5 -127.5 t-142.5 -40.5q-88 0 -142.5 46t-54.5 126h95q0 -78 102 -78q103 0 103 74q0 38 -40 49q-78 20 -145 32q-47 8 -77.5 45t-30.5 89zM210 331l141 -31q11 -2 23 -8q7 14 7 34q0 36 -44 49l-24.5 5.5l-51 11.5l-82.5 18q-10 -16 -10 -35q0 -35 41 -44z"/>
    <glyph glyph-name="dieresis" unicode="¨" horiz-adv-x="449" d="M379 608h-103v119h103v-119zM173 608h-103v119h103v-119z"/>
    <glyph glyph-name="copyright" unicode="©" horiz-adv-x="839" d="M535 255q0 -18 -5 -36t-17.5 -39t-38.5 -34t-63 -13q-35 0 -60.5 13t-37 34t-16.5 39t-5 36v177q0 17 5 35t17 38.5t38 33.5t61 13q47 0 76.5 -23.5t37.5 -48.5t8 -49h-87q0 35 -35 35t-35 -36v-174q0 -21 11 -29t24 -8q35 0 35 36h87zM68 348q0 146 103 250t249 104 t249 -104t103 -250t-103 -250t-249 -104t-249 104t-103 250zM156 348q0 -113 75.5 -191.5t186.5 -78.5t188.5 79t77.5 191t-77.5 191t-188.5 79t-186.5 -78.5t-75.5 -191.5z"/>
    <glyph glyph-name="ordfeminine" unicode="ª" horiz-adv-x="403" d="M336 580v-240h-71v24q-27 -30 -75 -30q-53 0 -88 29.5t-35 89.5q0 50 32.5 77.5t85.5 27.5h80v20q0 53 -56 53q-22 0 -38 -13.5t-20 -39.5h-72q6 59 45 90t84 31q53 0 90.5 -29t37.5 -90zM265 463v28h-79q-49 0 -49 -38q0 -51 59 -51q27 0 48 17t21 44z"/>
    <glyph glyph-name="guillemotleft" unicode="«" horiz-adv-x="483" d="M422 47l-216 216l216 218v-126l-91 -92l91 -91v-125zM238 46l-217 217l217 218v-125l-92 -93l92 -92v-125z"/>
    <glyph glyph-name="logicalnot" unicode="¬" horiz-adv-x="550" d="M483 161h-96v156h-320v93h416v-249z"/>
    <glyph glyph-name="uni00AD" unicode="­" horiz-adv-x="569" d="M498 236h-427v90h427v-90z"/>
    <glyph glyph-name="registered" unicode="®" horiz-adv-x="839" d="M555 402q0 -31 -16 -64t-55 -48l78 -155h-96l-74 147h-3v-147h-85v408h130q36 0 61.5 -13t37.5 -33t17 -38t5 -35v-22zM470 402v20q0 36 -36 36h-45v-92h46q35 0 35 36zM68 348q0 146 103 250t249 104t249 -104t103 -250t-103 -250t-249 -104t-249 104t-103 250zM156 348 q0 -113 75.5 -191.5t186.5 -78.5t188.5 79t77.5 191t-77.5 191t-188.5 79t-186.5 -78.5t-75.5 -191.5z"/>
    <glyph glyph-name="macron" unicode="¯" horiz-adv-x="456" d="M380 621h-305v81h305v-81z"/>
    <glyph glyph-name="degree" unicode="°" horiz-adv-x="324" d="M287 589q0 -51 -37 -88t-89 -37q-51 0 -87.5 37t-36.5 88q0 52 36.5 88.5t87.5 36.5q53 0 89.5 -36.5t36.5 -88.5zM220 589q0 24 -17.5 41t-41.5 17q-23 0 -40.5 -17t-17.5 -41q0 -23 17.5 -40t40.5 -17q24 0 41.5 17t17.5 40z"/>
    <glyph glyph-name="plusminus" unicode="±" horiz-adv-x="553" d="M486 237h-164v-114h-91v114h-164v90h164v148h91v-148h164v-90zM486 0h-419v90h419v-90z"/>
    <glyph glyph-name="twosuperior" unicode="²" horiz-adv-x="360" d="M293 603q0 -51 -38 -84q-18 -15 -50 -32q-67 -38 -67 -68v-7h154v-72h-225v82q0 52 50 90q3 2 35.5 21t51 36t18.5 33q0 41 -42 41q-17 0 -29 -16t-12 -44h-72q0 57 32 94t81 37q51 0 82 -30.5t31 -80.5z"/>
    <glyph glyph-name="threesuperior" unicode="³" horiz-adv-x="358" d="M285 649l-56 -83q62 -25 62 -98v-23q0 -38 -26.5 -74t-84.5 -36q-60 0 -86.5 41t-26.5 90h71q0 -33 13 -46t28 -13q41 0 41 38v22q0 37 -41 37h-38v52l53 82h-113v71h204v-60z"/>
    <glyph glyph-name="acute" unicode="´" horiz-adv-x="340" d="M166 593h-92l83 169h109z"/>
    <glyph glyph-name="mu" unicode="µ" d="M166 -226h-95v751h95v-342q0 -40 24.5 -69.5t77.5 -29.5q43 0 72 26t29 68v347h95v-525h-95v34q-37 -43 -101 -43q-61 0 -102 38v-255z"/>
    <glyph glyph-name="paragraph" unicode="¶" horiz-adv-x="526" d="M431 0h-97v602h-77v-602h-97v365q-76 4 -120.5 50t-44.5 112q0 86 48 129t138 43h250v-699z"/>
    <glyph glyph-name="periodcentered" unicode="·" horiz-adv-x="266" d="M195 203h-124v125h124v-125z"/>
    <glyph glyph-name="cedilla" unicode="¸" horiz-adv-x="316" d="M253 -43l-85 -169h-106l99 169h92z"/>
    <glyph glyph-name="onesuperior" unicode="¹" horiz-adv-x="343" d="M276 340h-209v71h67v226l-49 -5v71l120 10v-302h71v-71z"/>
    <glyph glyph-name="ordmasculine" unicode="º" horiz-adv-x="405" d="M338 463q0 -60 -37.5 -95.5t-98.5 -35.5q-62 0 -98.5 35t-36.5 96v104q0 60 37.5 95.5t97.5 35.5q62 0 99 -35.5t37 -95.5v-104zM266 463v104q0 61 -64 61q-30 0 -46.5 -16t-16.5 -45v-104q0 -61 63 -61q29 0 46.5 16.5t17.5 44.5z"/>
    <glyph glyph-name="guillemotright" unicode="»" horiz-adv-x="483" d="M462 264l-216 -216v124l92 92l-92 92v126zM277 264l-216 -216v124l93 92l-93 92v126z"/>
    <glyph glyph-name="onequarter" unicode="¼" horiz-adv-x="702" d="M276 340h-209v71h69v226l-51 -5v71l122 10v-302h69v-71zM527 756l-264 -807h-76l265 807h75zM635 0h-71v94h-146v56l82 221h71l-75 -206h68v125h71v-290z"/>
    <glyph glyph-name="onehalf" unicode="½" horiz-adv-x="733" d="M276 340h-209v71h68v226l-50 -4v70l121 10v-302h70v-71zM666 263q0 -51 -38 -84q-18 -15 -50 -32q-67 -38 -67 -68v-7h154v-72h-225v82q0 52 50 90q3 2 35.5 21t51 36t18.5 33q0 41 -42 41q-17 0 -29 -16t-12 -44h-72q0 57 32 94t81 37q51 0 82 -30.5t31 -80.5zM526 756 l-263 -807h-77l265 807h75z"/>
    <glyph glyph-name="threequarters" unicode="¾" horiz-adv-x="712" d="M645 0h-71v94h-147v56l82 221h72l-75 -206h68v125h71v-290zM285 649l-56 -83q33 -13 48 -40.5t15 -57.5v-23q0 -38 -27 -74t-85 -36q-60 0 -86.5 41t-26.5 90h71q0 -33 13 -46t28 -13q41 0 41 38v22q0 37 -41 37h-38v52l53 82h-112v71h203v-60zM536 756l-263 -807h-77 l266 807h74z"/>
    <glyph glyph-name="questiondown" unicode="¿" horiz-adv-x="413" d="M16 10q0 71 45 121q16 18 53.5 49.5t53.5 48.5q21 23 21 67v47h95v-44q0 -77 -46 -129q-14 -16 -52 -46t-54 -50q-21 -26 -21 -63q0 -105 104 -105q17 0 32.5 4.5t32.5 15.5t28.5 36t13.5 61h95q0 -31 -10 -64.5t-31.5 -67.5t-63.5 -56t-97 -22q-89 0 -144 54.5 t-55 142.5zM175 531h119v-120h-119v120z"/>
    <glyph glyph-name="Agrave" unicode="À" horiz-adv-x="547" d="M531 0h-99l-50 194h-215l-51 -194h-100l186 713h140zM357 290l-82 322l-85 -322h167zM329 780h-92l-100 169h109z"/>
    <glyph glyph-name="Aacute" unicode="Á" horiz-adv-x="547" d="M531 0h-99l-50 194h-215l-51 -194h-100l186 713h140zM357 290l-82 322l-85 -322h167zM299 780h-92l83 169h109z"/>
    <glyph glyph-name="Acircumflex" unicode="Â" horiz-adv-x="547" d="M531 0h-99l-50 194h-215l-51 -194h-100l186 713h140zM357 290l-82 322l-85 -322h167zM333 780l-60 79l-60 -79h-88l109 161h78l110 -161h-89z"/>
    <glyph glyph-name="Atilde" unicode="Ã" horiz-adv-x="547" d="M531 0h-99l-50 194h-215l-51 -194h-100l186 713h140zM357 290l-82 322l-85 -322h167zM382 897l57 -56q-63 -61 -109 -61q-22 0 -62.5 20t-52.5 20q-17 0 -51 -33l-57 55q62 62 111 62q22 0 61.5 -19.5t51.5 -19.5q19 0 51 32z"/>
    <glyph glyph-name="Adieresis" unicode="Ä" horiz-adv-x="547" d="M531 0h-99l-50 194h-215l-51 -194h-100l186 713h140zM357 290l-82 322l-85 -322h167zM428 780h-103v119h103v-119zM222 780h-103v119h103v-119z"/>
    <glyph glyph-name="Aring" unicode="Å" horiz-adv-x="547" d="M531 0h-99l-50 194h-215l-51 -194h-100l186 713h140zM357 290l-82 322l-85 -322h167zM225 850q0 -20 14.5 -34t33.5 -14t33.5 14t14.5 34t-14.5 34t-33.5 14t-33.5 -14t-14.5 -34zM160 850q0 46 33 79.5t80 33.5t80 -33.5t33 -79.5t-33 -79.5t-80 -33.5t-80 33.5 t-33 79.5z"/>
    <glyph glyph-name="AE" unicode="Æ" horiz-adv-x="775" d="M734 0h-396v194h-172q-6 -24 -24.5 -91.5t-26.5 -102.5h-99l186 713h532v-96h-299v-194h275v-96h-275v-231h299v-96zM276 617l-86 -327h148v327h-62z"/>
    <glyph glyph-name="Ccedilla" unicode="Ç" horiz-adv-x="518" d="M474 188q0 -28 -10 -59t-31.5 -63.5t-64.5 -53.5t-101 -21q-57 0 -99.5 21t-64.5 54t-32 64t-10 59v337q0 21 5.5 44.5t20 50.5t36.5 48.5t60 35.5t85 14q56 0 98.5 -21t64.5 -52.5t32.5 -62.5t10.5 -58h-97q0 24 -8.5 43t-20 29t-27.5 16.5t-28.5 8.5t-24.5 2 q-17 0 -33 -3.5t-35 -13.5t-30.5 -31t-11.5 -52v-335q0 -31 11.5 -53t30.5 -32t35.5 -14t32.5 -4t32 4t34.5 14t30.5 31.5t12 52.5h97zM314 -43l-85 -169h-106l99 169h92z"/>
    <glyph glyph-name="Egrave" unicode="È" horiz-adv-x="508" d="M467 0h-396v713h396v-96h-299v-194h277v-96h-277v-231h299v-96zM340 780h-92l-100 169h109z"/>
    <glyph glyph-name="Eacute" unicode="É" horiz-adv-x="508" d="M467 0h-396v713h396v-96h-299v-194h277v-96h-277v-231h299v-96zM290 780h-92l83 169h109z"/>
    <glyph glyph-name="Ecircumflex" unicode="Ê" horiz-adv-x="508" d="M467 0h-396v713h396v-96h-299v-194h277v-96h-277v-231h299v-96zM313 780l-60 79l-60 -79h-88l109 161h78l110 -161h-89z"/>
    <glyph glyph-name="Edieresis" unicode="Ë" horiz-adv-x="508" d="M467 0h-396v713h396v-96h-299v-194h277v-96h-277v-231h299v-96zM408 780h-103v119h103v-119zM202 780h-103v119h103v-119z"/>
    <glyph glyph-name="Igrave" unicode="Ì" horiz-adv-x="240" d="M71 713h97v-713h-97v713zM165 780h-92l-100 169h109z"/>
    <glyph glyph-name="Iacute" unicode="Í" horiz-adv-x="240" d="M71 713h97v-713h-97v713zM166 780h-92l83 169h109z"/>
    <glyph glyph-name="Icircumflex" unicode="Î" horiz-adv-x="240" d="M71 713h97v-713h-97v713zM180 780l-60 79l-60 -79h-88l109 161h78l110 -161h-89z"/>
    <glyph glyph-name="Idieresis" unicode="Ï" horiz-adv-x="240" d="M71 713h97v-713h-97v713zM275 780h-103v119h103v-119zM69 780h-103v119h103v-119z"/>
    <glyph glyph-name="Eth" unicode="Ð" horiz-adv-x="579" d="M512 196q0 -28 -8 -58t-27.5 -63t-60 -54t-97.5 -21h-219v328h-75v91h75v294h215q58 0 99.5 -21t61.5 -54t28 -62.5t8 -57.5v-322zM322 328h-125v-232h120q38 0 68 21.5t30 79.5v318q0 58 -30.5 80t-69.5 22h-118v-198h125v-91z"/>
    <glyph glyph-name="Ntilde" unicode="Ñ" horiz-adv-x="559" d="M488 0h-109l-211 495v-495h-97v713h107l213 -503v503h97v-713zM388 897l57 -56q-63 -61 -109 -61q-22 0 -62.5 20t-52.5 20q-17 0 -51 -33l-57 55q62 62 111 62q22 0 61.5 -19.5t51.5 -19.5q19 0 51 32z"/>
    <glyph glyph-name="Ograve" unicode="Ò" d="M474 188q0 -28 -10 -59t-31.5 -63.5t-64.5 -53.5t-101 -21q-57 0 -99.5 21t-64.5 54t-32 64t-10 59v337q0 21 5.5 44.5t20 50.5t36.5 48.5t60 35.5t85 14q56 0 98.5 -21t64.5 -52.5t32.5 -62.5t10.5 -58v-337zM377 189v335q0 31 -11.5 52t-30.5 31t-35 13.5t-32 3.5 q-17 0 -33 -3.5t-35 -13.5t-30.5 -31t-11.5 -52v-335q0 -31 11.5 -53t30.5 -32t35.5 -14t32.5 -4t32 4t34.5 14t30.5 32t12 53zM323 780h-92l-100 169h109z"/>
    <glyph glyph-name="Oacute" unicode="Ó" d="M474 188q0 -28 -10 -59t-31.5 -63.5t-64.5 -53.5t-101 -21q-57 0 -99.5 21t-64.5 54t-32 64t-10 59v337q0 21 5.5 44.5t20 50.5t36.5 48.5t60 35.5t85 14q56 0 98.5 -21t64.5 -52.5t32.5 -62.5t10.5 -58v-337zM377 189v335q0 31 -11.5 52t-30.5 31t-35 13.5t-32 3.5 q-17 0 -33 -3.5t-35 -13.5t-30.5 -31t-11.5 -52v-335q0 -31 11.5 -53t30.5 -32t35.5 -14t32.5 -4t32 4t34.5 14t30.5 32t12 53zM303 780h-92l83 169h109z"/>
    <glyph glyph-name="Ocircumflex" unicode="Ô" d="M474 188q0 -28 -10 -59t-31.5 -63.5t-64.5 -53.5t-101 -21q-57 0 -99.5 21t-64.5 54t-32 64t-10 59v337q0 21 5.5 44.5t20 50.5t36.5 48.5t60 35.5t85 14q56 0 98.5 -21t64.5 -52.5t32.5 -62.5t10.5 -58v-337zM377 189v335q0 31 -11.5 52t-30.5 31t-35 13.5t-32 3.5 q-17 0 -33 -3.5t-35 -13.5t-30.5 -31t-11.5 -52v-335q0 -31 11.5 -53t30.5 -32t35.5 -14t32.5 -4t32 4t34.5 14t30.5 32t12 53zM327 780l-60 79l-60 -79h-88l109 161h78l110 -161h-89z"/>
    <glyph glyph-name="Otilde" unicode="Õ" d="M474 188q0 -28 -10 -59t-31.5 -63.5t-64.5 -53.5t-101 -21q-57 0 -99.5 21t-64.5 54t-32 64t-10 59v337q0 21 5.5 44.5t20 50.5t36.5 48.5t60 35.5t85 14q56 0 98.5 -21t64.5 -52.5t32.5 -62.5t10.5 -58v-337zM377 189v335q0 31 -11.5 52t-30.5 31t-35 13.5t-32 3.5 q-17 0 -33 -3.5t-35 -13.5t-30.5 -31t-11.5 -52v-335q0 -31 11.5 -53t30.5 -32t35.5 -14t32.5 -4t32 4t34.5 14t30.5 32t12 53zM376 897l57 -56q-63 -61 -109 -61q-22 0 -62.5 20t-52.5 20q-17 0 -51 -33l-57 55q62 62 111 62q22 0 61.5 -19.5t51.5 -19.5q19 0 51 32z"/>
    <glyph glyph-name="Odieresis" unicode="Ö" d="M474 188q0 -28 -10 -59t-31.5 -63.5t-64.5 -53.5t-101 -21q-57 0 -99.5 21t-64.5 54t-32 64t-10 59v337q0 21 5.5 44.5t20 50.5t36.5 48.5t60 35.5t85 14q56 0 98.5 -21t64.5 -52.5t32.5 -62.5t10.5 -58v-337zM377 189v335q0 31 -11.5 52t-30.5 31t-35 13.5t-32 3.5 q-17 0 -33 -3.5t-35 -13.5t-30.5 -31t-11.5 -52v-335q0 -31 11.5 -53t30.5 -32t35.5 -14t32.5 -4t32 4t34.5 14t30.5 32t12 53zM422 780h-103v119h103v-119zM216 780h-103v119h103v-119z"/>
    <glyph glyph-name="multiply" unicode="×" horiz-adv-x="572" d="M472 143l-63 -60l-124 123l-123 -123l-62 61l124 124l-124 124l62 62l123 -124l124 124l62 -62l-124 -124z"/>
    <glyph glyph-name="Oslash" unicode="Ø" d="M474 188q0 -28 -10 -59t-31.5 -63.5t-64.5 -53.5t-101 -21q-74 0 -126 37l-38 -82h-57l56 121q-41 56 -41 122v336q0 21 5.5 44.5t20 50.5t36.5 48.5t60 35.5t85 14q70 0 123 -36l35 75h56l-52 -112q44 -55 44 -121v-336zM377 189v334v9l-194 -414q30 -32 85 -32 q16 0 32 4t34.5 14t30.5 32t12 53zM158 189v-4l192 409q-30 29 -82 29q-17 0 -33 -3.5t-35 -13.5t-30.5 -31t-11.5 -52v-334z"/>
    <glyph glyph-name="Ugrave" unicode="Ù" d="M474 188q0 -30 -9.5 -60.5t-30.5 -63t-64 -53t-102 -20.5q-47 0 -85 14t-60 35.5t-36.5 49t-20 52t-5.5 47.5v524h97v-524q0 -31 12 -53t30.5 -32t35 -14t32.5 -4t32.5 4t35 14t30 32t11.5 53v524h97v-525zM343 780h-92l-100 169h109z"/>
    <glyph glyph-name="Uacute" unicode="Ú" d="M474 188q0 -30 -9.5 -60.5t-30.5 -63t-64 -53t-102 -20.5q-47 0 -85 14t-60 35.5t-36.5 49t-20 52t-5.5 47.5v524h97v-524q0 -31 12 -53t30.5 -32t35 -14t32.5 -4t32.5 4t35 14t30 32t11.5 53v524h97v-525zM283 780h-92l83 169h109z"/>
    <glyph glyph-name="Ucircumflex" unicode="Û" d="M474 188q0 -30 -9.5 -60.5t-30.5 -63t-64 -53t-102 -20.5q-47 0 -85 14t-60 35.5t-36.5 49t-20 52t-5.5 47.5v524h97v-524q0 -31 12 -53t30.5 -32t35 -14t32.5 -4t32.5 4t35 14t30 32t11.5 53v524h97v-525zM327 780l-60 79l-60 -79h-88l109 161h78l110 -161h-89z"/>
    <glyph glyph-name="Udieresis" unicode="Ü" d="M474 188q0 -30 -9.5 -60.5t-30.5 -63t-64 -53t-102 -20.5q-47 0 -85 14t-60 35.5t-36.5 49t-20 52t-5.5 47.5v524h97v-524q0 -31 12 -53t30.5 -32t35 -14t32.5 -4t32.5 4t35 14t30 32t11.5 53v524h97v-525zM422 780h-103v119h103v-119zM216 780h-103v119h103v-119z"/>
    <glyph glyph-name="Yacute" unicode="Ý" horiz-adv-x="506" d="M489 713l-188 -455v-258h-97v260l-187 453h106l130 -327l131 327h105zM279 780h-92l83 169h109z"/>
    <glyph glyph-name="Thorn" unicode="Þ" horiz-adv-x="558" d="M71 713h97v-151h137q90 0 143.5 -55.5t53.5 -146.5q0 -93 -53.5 -149t-143.5 -56h-137v-155h-97v713zM303 467h-135v-217h135q42 0 72 25t30 85q0 50 -27 78.5t-75 28.5z"/>
    <glyph glyph-name="germandbls" unicode="ß" horiz-adv-x="542" d="M221 96h69q17 0 32 3.5t31.5 13.5t26.5 31t10 52v48q0 102 -91 102h-44v96h43q68 0 68 80q0 31 -10 52.5t-26.5 30.5t-31 12.5t-30.5 3.5q-100 0 -100 -99v-522h-97v525q0 28 8.5 57.5t28 61.5t61 52.5t99.5 20.5q46 0 82 -14.5t56.5 -35.5t33.5 -48.5t17.5 -50.5 t4.5 -45q0 -35 -16.5 -71t-43.5 -51q44 -21 64 -68t20 -86v-51q0 -22 -4.5 -45.5t-17.5 -51.5t-33.5 -49t-56.5 -35.5t-82 -14.5h-71v96z"/>
    <glyph glyph-name="agrave" unicode="à" horiz-adv-x="509" d="M442 359v-359h-95v40q-17 -23 -51 -36t-71 -13q-70 0 -124.5 45t-54.5 128q0 74 51 113t135 39h115v40q0 83 -94 83q-84 0 -94 -71h-95q8 85 63.5 124.5t124.5 39.5q78 0 134 -42t56 -131zM347 185v46h-114q-44 0 -68 -18t-24 -48q0 -43 27 -62.5t69 -19.5q43 0 76.5 29 t33.5 73zM330 593h-92l-100 169h109z"/>
    <glyph glyph-name="aacute" unicode="á" horiz-adv-x="509" d="M442 359v-359h-95v40q-17 -23 -51 -36t-71 -13q-70 0 -124.5 45t-54.5 128q0 74 51 113t135 39h115v40q0 83 -94 83q-84 0 -94 -71h-95q8 85 63.5 124.5t124.5 39.5q78 0 134 -42t56 -131zM347 185v46h-114q-44 0 -68 -18t-24 -48q0 -43 27 -62.5t69 -19.5q43 0 76.5 29 t33.5 73zM270 593h-92l83 169h109z"/>
    <glyph glyph-name="acircumflex" unicode="â" horiz-adv-x="509" d="M442 359v-359h-95v40q-17 -23 -51 -36t-71 -13q-70 0 -124.5 45t-54.5 128q0 74 51 113t135 39h115v40q0 83 -94 83q-84 0 -94 -71h-95q8 85 63.5 124.5t124.5 39.5q78 0 134 -42t56 -131zM347 185v46h-114q-44 0 -68 -18t-24 -48q0 -43 27 -62.5t69 -19.5q43 0 76.5 29 t33.5 73zM314 596l-60 79l-60 -79h-88l109 161h78l110 -161h-89z"/>
    <glyph glyph-name="atilde" unicode="ã" horiz-adv-x="509" d="M442 359v-359h-95v40q-17 -23 -51 -36t-71 -13q-70 0 -124.5 45t-54.5 128q0 74 51 113t135 39h115v40q0 83 -94 83q-84 0 -94 -71h-95q8 85 63.5 124.5t124.5 39.5q78 0 134 -42t56 -131zM347 185v46h-114q-44 0 -68 -18t-24 -48q0 -43 27 -62.5t69 -19.5q43 0 76.5 29 t33.5 73zM363 713l57 -56q-63 -61 -109 -61q-22 0 -62.5 20t-52.5 20q-17 0 -51 -33l-57 55q62 62 111 62q22 0 61.5 -19.5t51.5 -19.5q19 0 51 32z"/>
    <glyph glyph-name="adieresis" unicode="ä" horiz-adv-x="509" d="M442 359v-359h-95v40q-17 -23 -51 -36t-71 -13q-70 0 -124.5 45t-54.5 128q0 74 51 113t135 39h115v40q0 83 -94 83q-84 0 -94 -71h-95q8 85 63.5 124.5t124.5 39.5q78 0 134 -42t56 -131zM347 185v46h-114q-44 0 -68 -18t-24 -48q0 -43 27 -62.5t69 -19.5q43 0 76.5 29 t33.5 73zM409 608h-103v119h103v-119zM203 608h-103v119h103v-119z"/>
    <glyph glyph-name="aring" unicode="å" horiz-adv-x="509" d="M442 359v-359h-95v40q-17 -23 -51 -36t-71 -13q-70 0 -124.5 45t-54.5 128q0 74 51 113t135 39h115v40q0 83 -94 83q-84 0 -94 -71h-95q8 85 63.5 124.5t124.5 39.5q78 0 134 -42t56 -131zM347 185v46h-114q-44 0 -68 -18t-24 -48q0 -43 27 -62.5t69 -19.5q43 0 76.5 29 t33.5 73zM206 666q0 -20 14 -34t34 -14t34 14t14 34t-14 34t-34 14t-34 -14t-14 -34zM141 666q0 46 33.5 79.5t79.5 33.5t79.5 -33.5t33.5 -79.5t-33.5 -79.5t-79.5 -33.5t-79.5 33.5t-33.5 79.5z"/>
    <glyph glyph-name="ae" unicode="æ" horiz-adv-x="801" d="M645 320v21q0 41 -22.5 69.5t-78.5 28.5q-47 0 -73.5 -24.5t-27.5 -68.5v-26h202zM348 316v41q0 82 -94 82q-84 0 -95 -71h-96q4 44 24 77.5t49 51.5t58.5 26.5t59.5 8.5q42 0 81.5 -16.5t62.5 -46.5q23 27 63 45t83 18q90 0 143 -51.5t53 -139.5v-113h-297v-45 q0 -41 22.5 -70t78.5 -29q39 0 64.5 23t33.5 65h96q-10 -84 -62 -132.5t-132 -48.5q-44 0 -87 21t-65 54q-26 -33 -71 -54t-95 -21q-70 0 -124.5 45t-54.5 128q0 74 51 113t135 39h115zM348 185v46h-114q-44 0 -68 -18t-24 -48q0 -43 27 -62.5t69 -19.5q43 0 76.5 29 t33.5 73z"/>
    <glyph glyph-name="ccedilla" unicode="ç" horiz-adv-x="499" d="M260 532q82 0 134.5 -48t62.5 -133h-97q-16 88 -100 88q-49 0 -76.5 -26t-27.5 -72v-158q0 -41 24 -70.5t80 -29.5q40 0 66 23.5t33 65.5h98q-10 -85 -63 -133.5t-134 -48.5q-90 0 -144.5 52.5t-54.5 140.5v158q0 87 55 139t144 52zM320 -43l-85 -169h-106l99 169h92z "/>
    <glyph glyph-name="egrave" unicode="è" horiz-adv-x="520" d="M459 341v-113h-303v-45q0 -41 24 -70.5t80 -29.5q40 0 66.5 24t33.5 65h97q-10 -85 -63 -133.5t-134 -48.5q-90 0 -144.5 52.5t-54.5 140.5v158q0 87 55 139t144 52q90 0 144.5 -51.5t54.5 -139.5zM364 320v21q0 40 -24 69t-80 29q-49 0 -76.5 -26t-27.5 -72v-21h208z M330 593h-92l-100 169h109z"/>
    <glyph glyph-name="eacute" unicode="é" horiz-adv-x="520" d="M459 341v-113h-303v-45q0 -41 24 -70.5t80 -29.5q40 0 66.5 24t33.5 65h97q-10 -85 -63 -133.5t-134 -48.5q-90 0 -144.5 52.5t-54.5 140.5v158q0 87 55 139t144 52q90 0 144.5 -51.5t54.5 -139.5zM364 320v21q0 40 -24 69t-80 29q-49 0 -76.5 -26t-27.5 -72v-21h208z M270 593h-92l83 169h109z"/>
    <glyph glyph-name="ecircumflex" unicode="ê" horiz-adv-x="520" d="M459 341v-113h-303v-45q0 -41 24 -70.5t80 -29.5q40 0 66.5 24t33.5 65h97q-10 -85 -63 -133.5t-134 -48.5q-90 0 -144.5 52.5t-54.5 140.5v158q0 87 55 139t144 52q90 0 144.5 -51.5t54.5 -139.5zM364 320v21q0 40 -24 69t-80 29q-49 0 -76.5 -26t-27.5 -72v-21h208z M317 596l-60 79l-60 -79h-88l109 161h78l110 -161h-89z"/>
    <glyph glyph-name="edieresis" unicode="ë" horiz-adv-x="520" d="M459 341v-113h-303v-45q0 -41 24 -70.5t80 -29.5q40 0 66.5 24t33.5 65h97q-10 -85 -63 -133.5t-134 -48.5q-90 0 -144.5 52.5t-54.5 140.5v158q0 87 55 139t144 52q90 0 144.5 -51.5t54.5 -139.5zM364 320v21q0 40 -24 69t-80 29q-49 0 -76.5 -26t-27.5 -72v-21h208z M412 608h-103v119h103v-119zM206 608h-103v119h103v-119z"/>
    <glyph glyph-name="igrave" unicode="ì" horiz-adv-x="236" d="M165 0h-94v525h94v-525zM162 593h-92l-100 169h109z"/>
    <glyph glyph-name="iacute" unicode="í" horiz-adv-x="236" d="M165 0h-94v525h94v-525zM164 593h-92l83 169h109z"/>
    <glyph glyph-name="icircumflex" unicode="î" horiz-adv-x="236" d="M165 0h-94v525h94v-525zM178 596l-60 79l-60 -79h-88l109 161h78l110 -161h-89z"/>
    <glyph glyph-name="idieresis" unicode="ï" horiz-adv-x="236" d="M165 0h-94v525h94v-525zM273 608h-103v119h103v-119zM67 608h-103v119h103v-119z"/>
    <glyph glyph-name="eth" unicode="ð" horiz-adv-x="555" d="M532 693l-84 -85q17 -26 17 -80v-350q0 -26 -9.5 -55.5t-30.5 -60t-62 -50.5t-96 -20q-45 0 -81.5 14t-58 34.5t-36 47t-20 49.5t-5.5 43v78q0 27 9.5 57t30 61.5t61.5 52t96 20.5q69 0 114 -33v6v14v20.5v24v23.5v20t-1 13l-50 -51l-59 58l67 66q-28 22 -89 22v86 q98 0 152 -45l76 78zM377 182v75q0 32 -11.5 54t-30.5 32.5t-35.5 14.5t-32.5 4q-17 0 -34 -4t-36 -14.5t-31 -32.5t-12 -54v-75q0 -58 36 -80.5t77 -22.5q16 0 32.5 4t35.5 14t30.5 32t11.5 53z"/>
    <glyph glyph-name="ntilde" unicode="ñ" horiz-adv-x="529" d="M462 0h-95v341q0 20 -3 34.5t-11.5 30.5t-28 24.5t-48.5 8.5q-46 0 -78 -27t-32 -69v-343h-95v525h95v-30q46 37 110 37q90 0 138 -50.5t48 -140.5v-341zM373 713l57 -56q-63 -61 -109 -61q-22 0 -62.5 20t-52.5 20q-17 0 -51 -33l-57 55q62 62 111 62q22 0 61.5 -19.5 t51.5 -19.5q19 0 51 32z"/>
    <glyph glyph-name="ograve" unicode="ò" horiz-adv-x="520" d="M459 183q0 -87 -55.5 -140t-143.5 -53q-90 0 -144.5 52.5t-54.5 140.5v158q0 87 55 139t144 52q90 0 144.5 -51.5t54.5 -139.5v-158zM364 183v158q0 40 -24 69t-80 29q-49 0 -76.5 -26t-27.5 -72v-158q0 -41 24 -70.5t80 -29.5q48 0 76 27t28 73zM320 593h-92l-100 169 h109z"/>
    <glyph glyph-name="oacute" unicode="ó" horiz-adv-x="520" d="M459 183q0 -87 -55.5 -140t-143.5 -53q-90 0 -144.5 52.5t-54.5 140.5v158q0 87 55 139t144 52q90 0 144.5 -51.5t54.5 -139.5v-158zM364 183v158q0 40 -24 69t-80 29q-49 0 -76.5 -26t-27.5 -72v-158q0 -41 24 -70.5t80 -29.5q48 0 76 27t28 73zM280 593h-92l83 169h109 z"/>
    <glyph glyph-name="ocircumflex" unicode="ô" horiz-adv-x="520" d="M459 183q0 -87 -55.5 -140t-143.5 -53q-90 0 -144.5 52.5t-54.5 140.5v158q0 87 55 139t144 52q90 0 144.5 -51.5t54.5 -139.5v-158zM364 183v158q0 40 -24 69t-80 29q-49 0 -76.5 -26t-27.5 -72v-158q0 -41 24 -70.5t80 -29.5q48 0 76 27t28 73zM319 596l-60 79l-60 -79 h-88l109 161h78l110 -161h-89z"/>
    <glyph glyph-name="otilde" unicode="õ" horiz-adv-x="520" d="M459 183q0 -87 -55.5 -140t-143.5 -53q-90 0 -144.5 52.5t-54.5 140.5v158q0 87 55 139t144 52q90 0 144.5 -51.5t54.5 -139.5v-158zM364 183v158q0 40 -24 69t-80 29q-49 0 -76.5 -26t-27.5 -72v-158q0 -41 24 -70.5t80 -29.5q48 0 76 27t28 73zM369 713l57 -56 q-63 -61 -109 -61q-22 0 -62.5 20t-52.5 20q-17 0 -51 -33l-57 55q62 62 111 62q22 0 61.5 -19.5t51.5 -19.5q19 0 51 32z"/>
    <glyph glyph-name="odieresis" unicode="ö" horiz-adv-x="520" d="M459 183q0 -87 -55.5 -140t-143.5 -53q-90 0 -144.5 52.5t-54.5 140.5v158q0 87 55 139t144 52q90 0 144.5 -51.5t54.5 -139.5v-158zM364 183v158q0 40 -24 69t-80 29q-49 0 -76.5 -26t-27.5 -72v-158q0 -41 24 -70.5t80 -29.5q48 0 76 27t28 73zM414 608h-103v119h103 v-119zM208 608h-103v119h103v-119z"/>
    <glyph glyph-name="divide" unicode="÷" horiz-adv-x="525" d="M323 0h-129v128h129v-128zM323 302h-129v128h129v-128zM450 171h-382v91h382v-91z"/>
    <glyph glyph-name="oslash" unicode="ø" horiz-adv-x="520" d="M459 183q0 -87 -55.5 -140t-143.5 -53q-50 0 -94 18l-29 -60h-58l42 89q-60 52 -60 146v158q0 87 55 139t144 52q50 0 90 -17l30 62h57l-42 -89q64 -53 64 -147v-158zM364 183v158q0 30 -14 54l-144 -302q20 -10 54 -10q48 0 76 27t28 73zM156 183q0 -29 11 -51l143 298 q-21 9 -50 9q-49 0 -76.5 -26t-27.5 -72v-158z"/>
    <glyph glyph-name="ugrave" unicode="ù" horiz-adv-x="532" d="M460 0h-95v34q-15 -17 -44 -30t-58 -13q-90 0 -143 52t-53 140v342h95v-342q0 -41 22.5 -70t78.5 -29q45 0 73.5 26t28.5 68v347h95v-525zM332 593h-92l-100 169h109z"/>
    <glyph glyph-name="uacute" unicode="ú" horiz-adv-x="532" d="M460 0h-95v34q-15 -17 -44 -30t-58 -13q-90 0 -143 52t-53 140v342h95v-342q0 -41 22.5 -70t78.5 -29q45 0 73.5 26t28.5 68v347h95v-525zM282 593h-92l83 169h109z"/>
    <glyph glyph-name="ucircumflex" unicode="û" horiz-adv-x="532" d="M460 0h-95v34q-15 -17 -44 -30t-58 -13q-90 0 -143 52t-53 140v342h95v-342q0 -41 22.5 -70t78.5 -29q45 0 73.5 26t28.5 68v347h95v-525zM325 596l-60 79l-60 -79h-88l109 161h78l110 -161h-89z"/>
    <glyph glyph-name="udieresis" unicode="ü" horiz-adv-x="532" d="M460 0h-95v34q-15 -17 -44 -30t-58 -13q-90 0 -143 52t-53 140v342h95v-342q0 -41 22.5 -70t78.5 -29q45 0 73.5 26t28.5 68v347h95v-525zM420 608h-103v119h103v-119zM214 608h-103v119h103v-119z"/>
    <glyph glyph-name="yacute" unicode="ý" horiz-adv-x="450" d="M12 525h100l113 -411l114 411h99l-181 -622q-23 -79 -60 -104t-107 -25h-35v93h54q47 0 59 44l24 89h-27zM245 593h-92l83 169h109z"/>
    <glyph glyph-name="thorn" unicode="þ" horiz-adv-x="522" d="M461 183q0 -87 -53 -140t-141 -53q-27 0 -56.5 13t-44.5 31v-260h-95v919h95v-204q15 19 44 31t57 12q89 0 141.5 -51.5t52.5 -139.5v-158zM366 183v158q0 98 -99 98q-48 0 -74.5 -25.5t-26.5 -72.5v-158q0 -100 101 -100q47 0 73 27t26 73z"/>
    <glyph glyph-name="ydieresis" unicode="ÿ" horiz-adv-x="450" d="M12 525h100l113 -411l114 411h99l-181 -622q-23 -79 -60 -104t-107 -25h-35v93h54q47 0 59 44l24 89h-27zM377 608h-103v119h103v-119zM171 608h-103v119h103v-119z"/>
    <glyph glyph-name="Amacron" unicode="Ā" horiz-adv-x="547" d="M531 0h-99l-50 194h-215l-51 -194h-100l186 713h140zM357 290l-82 322l-85 -322h167zM426 800h-305v81h305v-81z"/>
    <glyph glyph-name="amacron" unicode="ā" horiz-adv-x="509" d="M442 359v-359h-95v40q-17 -23 -51 -36t-71 -13q-70 0 -124.5 45t-54.5 128q0 74 51 113t135 39h115v40q0 83 -94 83q-84 0 -94 -71h-95q8 85 63.5 124.5t124.5 39.5q78 0 134 -42t56 -131zM347 185v46h-114q-44 0 -68 -18t-24 -48q0 -43 27 -62.5t69 -19.5q43 0 76.5 29 t33.5 73zM407 621h-305v81h305v-81z"/>
    <glyph glyph-name="Abreve" unicode="Ă" horiz-adv-x="547" d="M531 0h-99l-50 194h-215l-51 -194h-100l186 713h140zM357 290l-82 322l-85 -322h167zM273 780q-64 0 -106 38t-48 114h78q3 -38 22.5 -59.5t53.5 -21.5t53.5 21.5t22.5 59.5h78q-6 -76 -48 -114t-106 -38z"/>
    <glyph glyph-name="abreve" unicode="ă" horiz-adv-x="509" d="M442 359v-359h-95v40q-17 -23 -51 -36t-71 -13q-70 0 -124.5 45t-54.5 128q0 74 51 113t135 39h115v40q0 83 -94 83q-84 0 -94 -71h-95q8 85 63.5 124.5t124.5 39.5q78 0 134 -42t56 -131zM347 185v46h-114q-44 0 -68 -18t-24 -48q0 -43 27 -62.5t69 -19.5q43 0 76.5 29 t33.5 73zM254 592q-64 0 -106 38t-48 114h78q3 -38 22.5 -59.5t53.5 -21.5t53.5 21.5t22.5 59.5h78q-6 -76 -48 -114t-106 -38z"/>
    <glyph glyph-name="Aogonek" unicode="Ą" horiz-adv-x="547" d="M531 0h-99l-50 194h-215l-51 -194h-100l186 713h140zM357 290l-82 322l-85 -322h167zM535 -212l-85 169h92l99 -169h-106z"/>
    <glyph glyph-name="aogonek" unicode="ą" horiz-adv-x="509" d="M442 359v-359h-95v40q-17 -23 -51 -36t-71 -13q-70 0 -124.5 45t-54.5 128q0 74 51 113t135 39h115v40q0 83 -94 83q-84 0 -94 -71h-95q8 85 63.5 124.5t124.5 39.5q78 0 134 -42t56 -131zM347 185v46h-114q-44 0 -68 -18t-24 -48q0 -43 27 -62.5t69 -19.5q43 0 76.5 29 t33.5 73zM435 -212l-85 169h92l99 -169h-106z"/>
    <glyph glyph-name="Cacute" unicode="Ć" horiz-adv-x="518" d="M474 188q0 -28 -10 -59t-31.5 -63.5t-64.5 -53.5t-101 -21q-57 0 -99.5 21t-64.5 54t-32 64t-10 59v337q0 21 5.5 44.5t20 50.5t36.5 48.5t60 35.5t85 14q56 0 98.5 -21t64.5 -52.5t32.5 -62.5t10.5 -58h-97q0 24 -8.5 43t-20 29t-27.5 16.5t-28.5 8.5t-24.5 2 q-17 0 -33 -3.5t-35 -13.5t-30.5 -31t-11.5 -52v-335q0 -31 11.5 -53t30.5 -32t35.5 -14t32.5 -4t32 4t34.5 14t30.5 31.5t12 52.5h97zM305 780h-92l83 169h109z"/>
    <glyph glyph-name="cacute" unicode="ć" horiz-adv-x="499" d="M260 532q82 0 134.5 -48t62.5 -133h-97q-16 88 -100 88q-49 0 -76.5 -26t-27.5 -72v-158q0 -41 24 -70.5t80 -29.5q40 0 66 23.5t33 65.5h98q-10 -85 -63 -133.5t-134 -48.5q-90 0 -144.5 52.5t-54.5 140.5v158q0 87 55 139t144 52zM270 593h-92l83 169h109z"/>
    <glyph glyph-name="Ccaron" unicode="Č" horiz-adv-x="518" d="M474 188q0 -28 -10 -59t-31.5 -63.5t-64.5 -53.5t-101 -21q-57 0 -99.5 21t-64.5 54t-32 64t-10 59v337q0 21 5.5 44.5t20 50.5t36.5 48.5t60 35.5t85 14q56 0 98.5 -21t64.5 -52.5t32.5 -62.5t10.5 -58h-97q0 24 -8.5 43t-20 29t-27.5 16.5t-28.5 8.5t-24.5 2 q-17 0 -33 -3.5t-35 -13.5t-30.5 -31t-11.5 -52v-335q0 -31 11.5 -53t30.5 -32t35.5 -14t32.5 -4t32 4t34.5 14t30.5 31.5t12 52.5h97zM209 941l60 -79l60 79h88l-109 -161h-78l-110 161h89z"/>
    <glyph glyph-name="ccaron" unicode="č" horiz-adv-x="499" d="M260 532q82 0 134.5 -48t62.5 -133h-97q-16 88 -100 88q-49 0 -76.5 -26t-27.5 -72v-158q0 -41 24 -70.5t80 -29.5q40 0 66 23.5t33 65.5h98q-10 -85 -63 -133.5t-134 -48.5q-90 0 -144.5 52.5t-54.5 140.5v158q0 87 55 139t144 52zM190 757l60 -79l60 79h88l-109 -161 h-78l-110 161h89z"/>
    <glyph glyph-name="Dcaron" unicode="Ď" horiz-adv-x="544" d="M483 519v-323q0 -28 -8 -58t-27.5 -63t-60 -54t-97.5 -21h-219v713h215q58 0 99.5 -20.5t61.5 -53.5t28 -62.5t8 -57.5zM386 197v319q0 58 -30.5 79.5t-69.5 21.5h-118v-521h120q38 0 68 21.5t30 79.5zM212 941l60 -79l60 79h88l-109 -161h-78l-110 161h89z"/>
    <glyph glyph-name="dcaron" unicode="ď" horiz-adv-x="633" d="M156 341v-158q0 -46 27 -73t74 -27q56 0 78.5 29t22.5 71v158q0 46 -27 72t-74 26q-56 0 -78.5 -29t-22.5 -69zM61 183v158q0 88 53 139.5t143 51.5q30 0 59 -13t42 -30v224h95v-713h-95v32q-13 -16 -42.5 -29t-58.5 -13q-88 0 -142 53t-54 140zM618 547h-85v206h85v-206 z"/>
    <glyph glyph-name="Dcroat" unicode="Đ" horiz-adv-x="573" d="M512 196q0 -28 -8 -58t-27.5 -63t-60 -54t-97.5 -21h-219v328h-75v91h75v294h215q58 0 99.5 -21t61.5 -54t28 -62.5t8 -57.5v-322zM322 328h-125v-232h120q38 0 68 21.5t30 79.5v318q0 58 -30.5 80t-69.5 22h-118v-198h125v-91z"/>
    <glyph glyph-name="dcroat" unicode="đ" horiz-adv-x="517" d="M217 564v86h141v63h95v-63h70v-86h-70v-564h-95v32q-39 -42 -101 -42q-88 0 -142 53t-54 140v158q0 88 53 139.5t143 51.5q62 0 101 -42v74h-141zM156 341v-158q0 -46 27 -73t74 -27q56 0 78.5 29t22.5 71v158q0 46 -27 72t-74 26q-56 0 -78.5 -28.5t-22.5 -69.5z"/>
    <glyph glyph-name="Emacron" unicode="Ē" horiz-adv-x="508" d="M467 0h-396v713h396v-96h-299v-194h277v-96h-277v-231h299v-96zM416 800h-305v81h305v-81z"/>
    <glyph glyph-name="emacron" unicode="ē" horiz-adv-x="520" d="M459 341v-113h-303v-45q0 -41 24 -70.5t80 -29.5q40 0 66.5 24t33.5 65h97q-10 -85 -63 -133.5t-134 -48.5q-90 0 -144.5 52.5t-54.5 140.5v158q0 87 55 139t144 52q90 0 144.5 -51.5t54.5 -139.5zM364 320v21q0 40 -24 69t-80 29q-49 0 -76.5 -26t-27.5 -72v-21h208z M410 621h-305v81h305v-81z"/>
    <glyph glyph-name="Edotaccent" unicode="Ė" horiz-adv-x="508" d="M467 0h-396v713h396v-96h-299v-194h277v-96h-277v-231h299v-96zM305 780h-103v119h103v-119z"/>
    <glyph glyph-name="edotaccent" unicode="ė" horiz-adv-x="520" d="M459 341v-113h-303v-45q0 -41 24 -70.5t80 -29.5q40 0 66.5 24t33.5 65h97q-10 -85 -63 -133.5t-134 -48.5q-90 0 -144.5 52.5t-54.5 140.5v158q0 87 55 139t144 52q90 0 144.5 -51.5t54.5 -139.5zM364 320v21q0 40 -24 69t-80 29q-49 0 -76.5 -26t-27.5 -72v-21h208z M309 608h-103v119h103v-119z"/>
    <glyph glyph-name="Eogonek" unicode="Ę" horiz-adv-x="508" d="M467 0h-396v713h396v-96h-299v-194h277v-96h-277v-231h299v-96zM291 -212l-85 169h92l99 -169h-106z"/>
    <glyph glyph-name="eogonek" unicode="ę" horiz-adv-x="520" d="M459 341v-113h-303v-45q0 -41 24 -70.5t80 -29.5q40 0 66.5 24t33.5 65h97q-10 -85 -63 -133.5t-134 -48.5q-90 0 -144.5 52.5t-54.5 140.5v158q0 87 55 139t144 52q90 0 144.5 -51.5t54.5 -139.5zM364 320v21q0 40 -24 69t-80 29q-49 0 -76.5 -26t-27.5 -72v-21h208z M296 -212l-85 169h92l99 -169h-106z"/>
    <glyph glyph-name="Ecaron" unicode="Ě" horiz-adv-x="508" d="M467 0h-396v713h396v-96h-299v-194h277v-96h-277v-231h299v-96zM194 941l60 -79l60 79h88l-109 -161h-78l-110 161h89z"/>
    <glyph glyph-name="ecaron" unicode="ě" horiz-adv-x="520" d="M459 341v-113h-303v-45q0 -41 24 -70.5t80 -29.5q40 0 66.5 24t33.5 65h97q-10 -85 -63 -133.5t-134 -48.5q-90 0 -144.5 52.5t-54.5 140.5v158q0 87 55 139t144 52q90 0 144.5 -51.5t54.5 -139.5zM364 320v21q0 40 -24 69t-80 29q-49 0 -76.5 -26t-27.5 -72v-21h208z M198 757l60 -79l60 79h88l-109 -161h-78l-110 161h89z"/>
    <glyph glyph-name="Gcommaaccent" unicode="Ģ" d="M474 188q0 -28 -10.5 -59t-32.5 -63.5t-65 -53.5t-100 -21q-46 0 -83 14.5t-59 36.5t-37 49.5t-20.5 51.5t-5.5 46v337q0 21 5.5 44.5t20 50.5t36.5 48.5t60 35.5t85 14q56 0 98.5 -20t64.5 -51.5t32.5 -62.5t10.5 -60h-98q0 30 -11.5 51t-30 30.5t-34.5 13.5t-32 4 t-32.5 -4t-35.5 -13.5t-30.5 -31t-11.5 -51.5v-335q0 -57 35.5 -80t74.5 -23q22 0 44 6.5t43.5 31.5t21.5 65v118h-123v96h220v-215zM325 -43l-85 -169h-106l99 169h92z"/>
    <glyph glyph-name="gcommaaccent" unicode="ģ" horiz-adv-x="523" d="M356 -39v71q-15 -17 -42.5 -29.5t-56.5 -12.5q-90 0 -143 52t-53 141v158q0 87 53.5 139t142.5 52q29 0 57.5 -12t41.5 -28v33h95v-564q0 -101 -54.5 -144t-139.5 -43q-69 0 -119.5 38.5t-64.5 105.5h99q9 -27 32 -43t53 -16q99 0 99 102zM356 183v158q0 98 -99 98 q-47 0 -74 -26t-27 -72v-158q0 -42 22.5 -71t78.5 -29q46 0 72.5 27t26.5 73zM287 593h-92l83 169h109z"/>
    <glyph glyph-name="Imacron" unicode="Ī" horiz-adv-x="240" d="M71 713h97v-713h-97v713zM273 800h-305v81h305v-81z"/>
    <glyph glyph-name="imacron" unicode="ī" horiz-adv-x="236" d="M165 0h-94v525h94v-525zM271 621h-305v81h305v-81z"/>
    <glyph glyph-name="Iogonek" unicode="Į" horiz-adv-x="240" d="M71 713h97v-713h-97v713zM160 -212l-85 169h92l99 -169h-106z"/>
    <glyph glyph-name="iogonek" unicode="į" horiz-adv-x="253" d="M174 0h-95v525h95v-525zM180 594h-107v122h107v-122zM166 -212l-85 169h92l99 -169h-106z"/>
    <glyph glyph-name="dotlessi" unicode="ı" horiz-adv-x="236" d="M165 0h-94v525h94v-525z"/>
    <glyph glyph-name="Kcommaaccent" unicode="Ķ" horiz-adv-x="524" d="M508 0h-111l-183 307l-46 -69v-238h-97v713h97v-302l215 302h113l-225 -321zM315 -43l-85 -169h-106l99 169h92z"/>
    <glyph glyph-name="kcommaaccent" unicode="ķ" horiz-adv-x="511" d="M487 0h-113l-147 232l-61 -66v-166h-95v713h95v-411l203 223h125l-204 -224zM314 -43l-85 -169h-106l99 169h92z"/>
    <glyph glyph-name="Lacute" unicode="Ĺ" horiz-adv-x="472" d="M466 0h-395v713h97v-617h298v-96zM242 780h-92l83 169h109z"/>
    <glyph glyph-name="lacute" unicode="ĺ" horiz-adv-x="255" d="M69 141v572h95v-576q0 -44 41 -44h35v-93h-40q-58 0 -94.5 34.5t-36.5 106.5zM162 780h-92l83 169h109z"/>
    <glyph glyph-name="Lcommaaccent" unicode="Ļ" horiz-adv-x="472" d="M466 0h-395v713h97v-617h298v-96zM311 -43l-85 -169h-106l99 169h92z"/>
    <glyph glyph-name="lcommaaccent" unicode="ļ" horiz-adv-x="255" d="M69 141v572h95v-576q0 -44 41 -44h35v-93h-40q-58 0 -94.5 34.5t-36.5 106.5zM236 -43l-85 -169h-106l99 169h92z"/>
    <glyph glyph-name="Lcaron" unicode="Ľ" horiz-adv-x="497" d="M466 0h-395v713h97v-617h298v-96zM407 547h-85v206h85v-206z"/>
    <glyph glyph-name="lcaron" unicode="ľ" horiz-adv-x="347" d="M69 141v572h95v-576q0 -44 41 -44h35v-93h-40q-58 0 -94.5 34.5t-36.5 106.5zM329 547h-85v206h85v-206z"/>
    <glyph glyph-name="Lslash" unicode="Ł" horiz-adv-x="471" d="M465 0h-393v242h-72v93h72v378h97v-378h200v-93h-200v-146h296v-96z"/>
    <glyph glyph-name="lslash" unicode="ł" horiz-adv-x="276" d="M78 141v104h-85v90h85v378h95v-378h85v-90h-85v-108q0 -44 41 -44h35v-93h-39q-59 0 -95.5 34.5t-36.5 106.5z"/>
    <glyph glyph-name="Nacute" unicode="Ń" horiz-adv-x="559" d="M488 0h-109l-211 495v-495h-97v713h107l213 -503v503h97v-713zM295 780h-92l83 169h109z"/>
    <glyph glyph-name="nacute" unicode="ń" horiz-adv-x="529" d="M462 0h-95v341q0 20 -3 34.5t-11.5 30.5t-28 24.5t-48.5 8.5q-46 0 -78 -27t-32 -69v-343h-95v525h95v-30q46 37 110 37q90 0 138 -50.5t48 -140.5v-341zM290 593h-92l83 169h109z"/>
    <glyph glyph-name="Ncommaaccent" unicode="Ņ" horiz-adv-x="559" d="M488 0h-109l-211 495v-495h-97v713h107l213 -503v503h97v-713zM322 -43l-85 -169h-106l99 169h92z"/>
    <glyph glyph-name="ncommaaccent" unicode="ņ" horiz-adv-x="529" d="M462 0h-95v341q0 20 -3 34.5t-11.5 30.5t-28 24.5t-48.5 8.5q-46 0 -78 -27t-32 -69v-343h-95v525h95v-30q46 37 110 37q90 0 138 -50.5t48 -140.5v-341zM307 -43l-85 -169h-106l99 169h92z"/>
    <glyph glyph-name="Ncaron" unicode="Ň" horiz-adv-x="559" d="M488 0h-109l-211 495v-495h-97v713h107l213 -503v503h97v-713zM220 941l60 -79l60 79h88l-109 -161h-78l-110 161h89z"/>
    <glyph glyph-name="ncaron" unicode="ň" horiz-adv-x="529" d="M462 0h-95v341q0 20 -3 34.5t-11.5 30.5t-28 24.5t-48.5 8.5q-46 0 -78 -27t-32 -69v-343h-95v525h95v-30q46 37 110 37q90 0 138 -50.5t48 -140.5v-341zM205 757l60 -79l60 79h88l-109 -161h-78l-110 161h89z"/>
    <glyph glyph-name="Omacron" unicode="Ō" d="M474 188q0 -28 -10 -59t-31.5 -63.5t-64.5 -53.5t-101 -21q-57 0 -99.5 21t-64.5 54t-32 64t-10 59v337q0 21 5.5 44.5t20 50.5t36.5 48.5t60 35.5t85 14q56 0 98.5 -21t64.5 -52.5t32.5 -62.5t10.5 -58v-337zM377 189v335q0 31 -11.5 52t-30.5 31t-35 13.5t-32 3.5 q-17 0 -33 -3.5t-35 -13.5t-30.5 -31t-11.5 -52v-335q0 -31 11.5 -53t30.5 -32t35.5 -14t32.5 -4t32 4t34.5 14t30.5 32t12 53zM420 800h-305v81h305v-81z"/>
    <glyph glyph-name="omacron" unicode="ō" horiz-adv-x="520" d="M459 183q0 -87 -55.5 -140t-143.5 -53q-90 0 -144.5 52.5t-54.5 140.5v158q0 87 55 139t144 52q90 0 144.5 -51.5t54.5 -139.5v-158zM364 183v158q0 40 -24 69t-80 29q-49 0 -76.5 -26t-27.5 -72v-158q0 -41 24 -70.5t80 -29.5q48 0 76 27t28 73zM412 621h-305v81h305 v-81z"/>
    <glyph glyph-name="Ohungarumlaut" unicode="Ő" d="M474 188q0 -28 -10 -59t-31.5 -63.5t-64.5 -53.5t-101 -21q-57 0 -99.5 21t-64.5 54t-32 64t-10 59v337q0 21 5.5 44.5t20 50.5t36.5 48.5t60 35.5t85 14q56 0 98.5 -21t64.5 -52.5t32.5 -62.5t10.5 -58v-337zM377 189v335q0 31 -11.5 52t-30.5 31t-35 13.5t-32 3.5 q-17 0 -33 -3.5t-35 -13.5t-30.5 -31t-11.5 -52v-335q0 -31 11.5 -53t30.5 -32t35.5 -14t32.5 -4t32 4t34.5 14t30.5 32t12 53zM333 940l-95 -160h-81l78 160h98zM477 940l-95 -160h-81l78 160h98z"/>
    <glyph glyph-name="ohungarumlaut" unicode="ő" horiz-adv-x="520" d="M459 183q0 -87 -55.5 -140t-143.5 -53q-90 0 -144.5 52.5t-54.5 140.5v158q0 87 55 139t144 52q90 0 144.5 -51.5t54.5 -139.5v-158zM364 183v158q0 40 -24 69t-80 29q-49 0 -76.5 -26t-27.5 -72v-158q0 -41 24 -70.5t80 -29.5q48 0 76 27t28 73zM316 758l-95 -160h-81 l78 160h98zM460 758l-95 -160h-81l78 160h98z"/>
    <glyph glyph-name="OE" unicode="Œ" horiz-adv-x="814" d="M773 0h-396v17q-50 -26 -110 -26q-56 0 -98.5 21.5t-64.5 54t-32.5 63.5t-10.5 59v336q0 21 5.5 44.5t20.5 50.5t37 48.5t59.5 35.5t84.5 14q62 0 109 -26v21h396v-96h-299v-194h277v-96h-277v-231h299v-96zM268 86q16 0 32 4t34.5 13.5t30 30t12.5 48.5v341 q0 31 -11.5 52t-30 31t-34.5 13.5t-33 3.5q-16 0 -32.5 -3.5t-35.5 -13.5t-30.5 -31t-11.5 -52v-334q0 -31 12 -53t30.5 -32t35 -14t32.5 -4z"/>
    <glyph glyph-name="oe" unicode="œ" horiz-adv-x="811" d="M453 228v-52q0 -38 23.5 -65.5t77.5 -27.5q39 0 64 23.5t33 65.5h97q-10 -84 -62 -133t-132 -49q-99 0 -149 58q-51 -58 -147 -58q-89 0 -143 53t-54 140v158q0 85 54.5 138t142.5 53q92 0 148 -59q53 59 148 59q88 0 142 -52.5t54 -138.5v-113h-297zM358 347 q-6 92 -100 92q-48 0 -75 -26t-27 -72v-158q0 -39 23.5 -69.5t78.5 -30.5q46 0 73 26t27 70v168zM655 320v21q0 40 -23.5 69t-77.5 29q-47 0 -73.5 -24.5t-27.5 -68.5v-26h202z"/>
    <glyph glyph-name="Racute" unicode="Ŕ" horiz-adv-x="551" d="M508 0h-110l-136 291h-94v-291h-97v713h215q47 0 84 -14.5t58 -35.5t34.5 -48.5t18 -50.5t4.5 -45v-33q0 -31 -9 -63.5t-37.5 -68.5t-73.5 -52zM388 487v29q0 31 -10.5 52.5t-28 31t-33 13.5t-32.5 4h-116v-230h118q17 0 32 3.5t32 13.5t27.5 31t10.5 52zM271 780h-92 l83 169h109z"/>
    <glyph glyph-name="racute" unicode="ŕ" horiz-adv-x="318" d="M296 432h-53q-29 0 -53 -25.5t-24 -76.5v-330h-95v525h95v-47q24 47 90 47h40v-93zM167 593h-92l83 169h109z"/>
    <glyph glyph-name="Rcommaaccent" unicode="Ŗ" horiz-adv-x="551" d="M508 0h-110l-136 291h-94v-291h-97v713h215q47 0 84 -14.5t58 -35.5t34.5 -48.5t18 -50.5t4.5 -45v-33q0 -31 -9 -63.5t-37.5 -68.5t-73.5 -52zM388 487v29q0 31 -10.5 52.5t-28 31t-33 13.5t-32.5 4h-116v-230h118q17 0 32 3.5t32 13.5t27.5 31t10.5 52zM318 -43 l-85 -169h-106l99 169h92z"/>
    <glyph glyph-name="rcommaaccent" unicode="ŗ" horiz-adv-x="318" d="M296 432h-53q-29 0 -53 -25.5t-24 -76.5v-330h-95v525h95v-47q24 47 90 47h40v-93zM163 -43l-85 -169h-106l99 169h92z"/>
    <glyph glyph-name="Rcaron" unicode="Ř" horiz-adv-x="551" d="M508 0h-110l-136 291h-94v-291h-97v713h215q47 0 84 -14.5t58 -35.5t34.5 -48.5t18 -50.5t4.5 -45v-33q0 -31 -9 -63.5t-37.5 -68.5t-73.5 -52zM388 487v29q0 31 -10.5 52.5t-28 31t-33 13.5t-32.5 4h-116v-230h118q17 0 32 3.5t32 13.5t27.5 31t10.5 52zM206 941l60 -79 l60 79h88l-109 -161h-78l-110 161h89z"/>
    <glyph glyph-name="rcaron" unicode="ř" horiz-adv-x="318" d="M296 432h-53q-29 0 -53 -25.5t-24 -76.5v-330h-95v525h95v-47q24 47 90 47h40v-93zM100 757l60 -79l60 79h88l-109 -161h-78l-110 161h89z"/>
    <glyph glyph-name="Sacute" unicode="Ś" horiz-adv-x="514" d="M472 188q0 -85 -62.5 -141t-155.5 -56q-95 0 -153.5 56t-58.5 141h97q0 -48 31.5 -75t82.5 -27q55 0 88.5 29t33.5 75q0 60 -62 96q-38 22 -162 85q-44 22 -70.5 66t-26.5 97q0 81 56.5 133t144.5 52q92 0 150 -54.5t58 -138.5h-98q0 46 -30.5 72t-79.5 26 q-45 0 -74.5 -24.5t-29.5 -67.5q0 -52 55 -80l154 -79q112 -61 112 -185zM283 780h-92l83 169h109z"/>
    <glyph glyph-name="sacute" unicode="ś" horiz-adv-x="479" d="M439 161q0 -86 -57 -127.5t-144 -41.5q-84 0 -138.5 48t-58.5 132h96q4 -42 31 -65t71 -23q43 0 74.5 17.5t31.5 53.5q0 38 -53 54q-20 6 -125 34q-53 14 -85.5 48t-32.5 86q0 76 53.5 115t133.5 39q81 0 134.5 -44.5t60.5 -123.5h-98q-13 76 -99 76q-38 0 -64.5 -14.5 t-26.5 -45.5q0 -33 49 -46q3 -1 55.5 -15t77.5 -22q50 -16 82 -50.5t32 -84.5zM270 593h-92l83 169h109z"/>
    <glyph glyph-name="Scaron" unicode="Š" horiz-adv-x="514" d="M472 188q0 -85 -62.5 -141t-155.5 -56q-95 0 -153.5 56t-58.5 141h97q0 -48 31.5 -75t82.5 -27q55 0 88.5 29t33.5 75q0 60 -62 96q-38 22 -162 85q-44 22 -70.5 66t-26.5 97q0 81 56.5 133t144.5 52q92 0 150 -54.5t58 -138.5h-98q0 46 -30.5 72t-79.5 26 q-45 0 -74.5 -24.5t-29.5 -67.5q0 -52 55 -80l154 -79q112 -61 112 -185zM197 941l60 -79l60 79h88l-109 -161h-78l-110 161h89z"/>
    <glyph glyph-name="scaron" unicode="š" horiz-adv-x="479" d="M439 161q0 -86 -57 -127.5t-144 -41.5q-84 0 -138.5 48t-58.5 132h96q4 -42 31 -65t71 -23q43 0 74.5 17.5t31.5 53.5q0 38 -53 54q-20 6 -125 34q-53 14 -85.5 48t-32.5 86q0 76 53.5 115t133.5 39q81 0 134.5 -44.5t60.5 -123.5h-98q-13 76 -99 76q-38 0 -64.5 -14.5 t-26.5 -45.5q0 -33 49 -46q3 -1 55.5 -15t77.5 -22q50 -16 82 -50.5t32 -84.5zM180 757l60 -79l60 79h88l-109 -161h-78l-110 161h89z"/>
    <glyph glyph-name="Tcommaaccent" unicode="Ţ" horiz-adv-x="468" d="M451 617h-169v-617h-97v617h-168v96h434v-96zM278 -43l-85 -169h-106l99 169h92z"/>
    <glyph glyph-name="tcommaaccent" unicode="ţ" horiz-adv-x="350" d="M12 432v93h95v188h95v-188h109v-93h-109v-295q0 -44 41 -44h70v-93h-74q-60 0 -96 34.5t-36 106.5v291h-95zM305 -43l-85 -169h-106l99 169h92z"/>
    <glyph glyph-name="Tcaron" unicode="Ť" horiz-adv-x="468" d="M451 617h-169v-617h-97v617h-168v96h434v-96zM174 941l60 -79l60 79h88l-109 -161h-78l-110 161h89z"/>
    <glyph glyph-name="tcaron" unicode="ť" horiz-adv-x="468" d="M12 432v93h95v188h95v-188h109v-93h-109v-295q0 -44 41 -44h70v-93h-74q-60 0 -96 34.5t-36 106.5v291h-95zM443 547h-85v206h85v-206z"/>
    <glyph glyph-name="Umacron" unicode="Ū" d="M474 188q0 -30 -9.5 -60.5t-30.5 -63t-64 -53t-102 -20.5q-47 0 -85 14t-60 35.5t-36.5 49t-20 52t-5.5 47.5v524h97v-524q0 -31 12 -53t30.5 -32t35 -14t32.5 -4t32.5 4t35 14t30 32t11.5 53v524h97v-525zM420 800h-305v81h305v-81z"/>
    <glyph glyph-name="umacron" unicode="ū" horiz-adv-x="532" d="M460 0h-95v34q-15 -17 -44 -30t-58 -13q-90 0 -143 52t-53 140v342h95v-342q0 -41 22.5 -70t78.5 -29q45 0 73.5 26t28.5 68v347h95v-525zM418 621h-305v81h305v-81z"/>
    <glyph glyph-name="Uring" unicode="Ů" d="M474 188q0 -30 -9.5 -60.5t-30.5 -63t-64 -53t-102 -20.5q-47 0 -85 14t-60 35.5t-36.5 49t-20 52t-5.5 47.5v524h97v-524q0 -31 12 -53t30.5 -32t35 -14t32.5 -4t32.5 4t35 14t30 32t11.5 53v524h97v-525zM219 851q0 -19 14.5 -33.5t33.5 -14.5t33.5 14.5t14.5 33.5 t-14.5 33.5t-33.5 14.5t-33.5 -14.5t-14.5 -33.5zM154 851q0 47 33 80t80 33t80 -33t33 -80t-33 -80t-80 -33t-80 33t-33 80z"/>
    <glyph glyph-name="uring" unicode="ů" horiz-adv-x="532" d="M460 0h-95v34q-15 -17 -44 -30t-58 -13q-90 0 -143 52t-53 140v342h95v-342q0 -41 22.5 -70t78.5 -29q45 0 73.5 26t28.5 68v347h95v-525zM218 666q0 -20 14 -34t34 -14t34 14t14 34t-14 34t-34 14t-34 -14t-14 -34zM153 666q0 46 33.5 79.5t79.5 33.5t79.5 -33.5 t33.5 -79.5t-33.5 -79.5t-79.5 -33.5t-79.5 33.5t-33.5 79.5z"/>
    <glyph glyph-name="Uhungarumlaut" unicode="Ű" d="M474 188q0 -30 -9.5 -60.5t-30.5 -63t-64 -53t-102 -20.5q-47 0 -85 14t-60 35.5t-36.5 49t-20 52t-5.5 47.5v524h97v-524q0 -31 12 -53t30.5 -32t35 -14t32.5 -4t32.5 4t35 14t30 32t11.5 53v524h97v-525zM333 940l-95 -160h-81l78 160h98zM477 940l-95 -160h-81l78 160 h98z"/>
    <glyph glyph-name="uhungarumlaut" unicode="ű" horiz-adv-x="532" d="M460 0h-95v34q-15 -17 -44 -30t-58 -13q-90 0 -143 52t-53 140v342h95v-342q0 -41 22.5 -70t78.5 -29q45 0 73.5 26t28.5 68v347h95v-525zM322 758l-95 -160h-81l78 160h98zM466 758l-95 -160h-81l78 160h98z"/>
    <glyph glyph-name="Uogonek" unicode="Ų" d="M474 188q0 -30 -9.5 -60.5t-30.5 -63t-64 -53t-102 -20.5q-47 0 -85 14t-60 35.5t-36.5 49t-20 52t-5.5 47.5v524h97v-524q0 -31 12 -53t30.5 -32t35 -14t32.5 -4t32.5 4t35 14t30 32t11.5 53v524h97v-525zM308 -212l-85 169h92l99 -169h-106z"/>
    <glyph glyph-name="uogonek" unicode="ų" horiz-adv-x="532" d="M460 0h-95v34q-15 -17 -44 -30t-58 -13q-90 0 -143 52t-53 140v342h95v-342q0 -41 22.5 -70t78.5 -29q45 0 73.5 26t28.5 68v347h95v-525zM454 -212l-85 169h92l99 -169h-106z"/>
    <glyph glyph-name="Ydieresis" unicode="Ÿ" horiz-adv-x="506" d="M489 713l-188 -455v-258h-97v260l-187 453h106l130 -327l131 327h105zM407 780h-103v119h103v-119zM201 780h-103v119h103v-119z"/>
    <glyph glyph-name="Zacute" unicode="Ź" horiz-adv-x="450" d="M429 0h-408v83l281 534h-267v96h379v-81l-280 -537h295v-95zM241 780h-92l83 169h109z"/>
    <glyph glyph-name="zacute" unicode="ź" horiz-adv-x="437" d="M405 0h-373v80l237 352h-229v93h345v-80l-237 -352h257v-93zM244 593h-92l83 169h109z"/>
    <glyph glyph-name="Zdotaccent" unicode="Ż" horiz-adv-x="450" d="M429 0h-408v83l281 534h-267v96h379v-81l-280 -537h295v-95zM276 780h-103v119h103v-119z"/>
    <glyph glyph-name="zdotaccent" unicode="ż" horiz-adv-x="437" d="M405 0h-373v80l237 352h-229v93h345v-80l-237 -352h257v-93zM270 608h-103v119h103v-119z"/>
    <glyph glyph-name="Zcaron" unicode="Ž" horiz-adv-x="450" d="M429 0h-408v83l281 534h-267v96h379v-81l-280 -537h295v-95zM166 941l60 -79l60 79h88l-109 -161h-78l-110 161h89z"/>
    <glyph glyph-name="zcaron" unicode="ž" horiz-adv-x="437" d="M405 0h-373v80l237 352h-229v93h345v-80l-237 -352h257v-93zM159 757l60 -79l60 79h88l-109 -161h-78l-110 161h89z"/>
    <glyph glyph-name="florin" unicode="ƒ" horiz-adv-x="321" d="M193 -64q0 -73 -36 -107.5t-96 -34.5h-38v94h34q41 0 41 43v501h-86v92h86v16q0 72 37 113t109 41h57v-94h-65q-17 0 -30 -11t-13 -37v-28h118v-92h-118v-496z"/>
    <glyph glyph-name="Scommaaccent" unicode="Ș" horiz-adv-x="514" d="M472 188q0 -85 -62.5 -141t-155.5 -56q-95 0 -153.5 56t-58.5 141h97q0 -48 31.5 -75t82.5 -27q55 0 88.5 29t33.5 75q0 60 -62 96q-38 22 -162 85q-44 22 -70.5 66t-26.5 97q0 81 56.5 133t144.5 52q92 0 150 -54.5t58 -138.5h-98q0 46 -30.5 72t-79.5 26 q-45 0 -74.5 -24.5t-29.5 -67.5q0 -52 55 -80l154 -79q112 -61 112 -185zM322 -43l-85 -169h-106l99 169h92z"/>
    <glyph glyph-name="scommaaccent" unicode="ș" horiz-adv-x="479" d="M439 161q0 -86 -57 -127.5t-144 -41.5q-84 0 -138.5 48t-58.5 132h96q4 -42 31 -65t71 -23q43 0 74.5 17.5t31.5 53.5q0 38 -53 54q-20 6 -125 34q-53 14 -85.5 48t-32.5 86q0 76 53.5 115t133.5 39q81 0 134.5 -44.5t60.5 -123.5h-98q-13 76 -99 76q-38 0 -64.5 -14.5 t-26.5 -45.5q0 -33 49 -46q3 -1 55.5 -15t77.5 -22q50 -16 82 -50.5t32 -84.5zM305 -43l-85 -169h-106l99 169h92z"/>
    <glyph glyph-name="circumflex" unicode="ˆ" horiz-adv-x="466" d="M292 596l-60 79l-60 -79h-88l109 161h78l110 -161h-89z"/>
    <glyph glyph-name="caron" unicode="ˇ" horiz-adv-x="466" d="M173 757l60 -79l60 79h88l-109 -161h-78l-110 161h89z"/>
    <glyph glyph-name="breve" unicode="˘" horiz-adv-x="485" d="M242 592q-64 0 -106 38t-48 114h78q3 -38 22.5 -59.5t53.5 -21.5t53.5 21.5t22.5 59.5h78q-6 -76 -48 -114t-106 -38z"/>
    <glyph glyph-name="dotaccent" unicode="˙" horiz-adv-x="254" d="M178 608h-103v119h103v-119z"/>
    <glyph glyph-name="ring" unicode="˚" horiz-adv-x="370" d="M137 666q0 -20 14.5 -34t33.5 -14t33.5 14t14.5 34t-14.5 34t-33.5 14t-33.5 -14t-14.5 -34zM72 666q0 46 33 79.5t80 33.5t80 -33.5t33 -79.5t-33 -79.5t-80 -33.5t-80 33.5t-33 79.5z"/>
    <glyph glyph-name="ogonek" unicode="˛" horiz-adv-x="332" d="M155 -212l-85 169h92l99 -169h-106z"/>
    <glyph glyph-name="tilde" unicode="˜" horiz-adv-x="486" d="M352 713l57 -56q-63 -61 -109 -61q-22 0 -62.5 20t-52.5 20q-17 0 -51 -33l-57 55q62 62 111 62q22 0 61.5 -19.5t51.5 -19.5q19 0 51 32z"/>
    <glyph glyph-name="hungarumlaut" unicode="˝" horiz-adv-x="488" d="M260 758l-95 -160h-81l78 160h98zM404 758l-95 -160h-81l78 160h98z"/>
    <glyph glyph-name="pi" unicode="π" horiz-adv-x="622" d="M390 137v295h-170v-432h-95v432h-88v93h533v-93h-85v-299q0 -44 42 -44h36v-94h-41q-59 0 -95.5 34t-36.5 108z"/>
    <glyph glyph-name="endash" unicode="–" horiz-adv-x="569" d="M498 236h-427v90h427v-90z"/>
    <glyph glyph-name="emdash" unicode="—" horiz-adv-x="803" d="M732 236h-661v90h661v-90z"/>
    <glyph glyph-name="quoteleft" unicode="‘" horiz-adv-x="275" d="M119 753h86l-46 -215h-101z"/>
    <glyph glyph-name="quoteright" unicode="’" horiz-adv-x="274" d="M152 538h-84l43 215h101z"/>
    <glyph glyph-name="quotesinglbase" unicode="‚" horiz-adv-x="274" d="M142 -115h-84l43 215h101z"/>
    <glyph glyph-name="quotedblleft" unicode="“" horiz-adv-x="441" d="M288 753h84l-45 -215h-101zM118 753h86l-46 -215h-101z"/>
    <glyph glyph-name="quotedblright" unicode="”" horiz-adv-x="441" d="M151 538h-84l43 215h101zM321 538h-86l44 215h101z"/>
    <glyph glyph-name="quotedblbase" unicode="„" horiz-adv-x="441" d="M141 -115h-84l43 215h101zM311 -115h-86l44 215h101z"/>
    <glyph glyph-name="dagger" unicode="†" horiz-adv-x="440" d="M263 -53h-88v497h-108v89h108v214h88v-214h110v-89h-110v-497z"/>
    <glyph glyph-name="daggerdbl" unicode="‡" horiz-adv-x="440" d="M263 -53h-88v214h-108v89h108v195h-108v89h108v213h88v-213h110v-89h-110v-195h110v-89h-110v-214z"/>
    <glyph glyph-name="bullet" unicode="•" horiz-adv-x="375" d="M304 344q0 -48 -33.5 -82t-82.5 -34t-83 34t-34 82q0 49 34 83.5t83 34.5t82.5 -34.5t33.5 -83.5z"/>
    <glyph glyph-name="ellipsis" unicode="…" horiz-adv-x="649" d="M583 0h-115v124h115v-124zM381 0h-113v124h113v-124zM182 0h-115v124h115v-124z"/>
    <glyph glyph-name="perthousand" unicode="‰" horiz-adv-x="1167" d="M1096 134q0 -61 -38 -97.5t-100 -36.5q-63 0 -100.5 36.5t-37.5 97.5v97q0 62 38 99t100 37q63 0 100.5 -36.5t37.5 -99.5v-97zM1005 134v97q0 47 -47 47q-22 0 -34.5 -12.5t-12.5 -34.5v-97q0 -45 47 -45q22 0 34.5 12t12.5 33zM346 480q0 -61 -38 -97.5t-100 -36.5 q-63 0 -100.5 36.5t-37.5 97.5v97q0 62 38 99t100 37q63 0 100.5 -36.5t37.5 -99.5v-97zM255 480v97q0 47 -47 47q-22 0 -34.5 -12.5t-12.5 -34.5v-97q0 -45 47 -45q22 0 34.5 12t12.5 33zM584 756l-263 -807h-77l265 807h75zM764 134q0 -61 -38 -97.5t-100 -36.5 q-63 0 -100.5 36.5t-37.5 97.5v97q0 62 38 99t100 37q63 0 100.5 -36.5t37.5 -99.5v-97zM673 134v97q0 47 -47 47q-22 0 -34.5 -12.5t-12.5 -34.5v-97q0 -45 47 -45q22 0 34.5 12t12.5 33z"/>
    <glyph glyph-name="guilsinglleft" unicode="‹" horiz-adv-x="299" d="M238 47l-217 216l217 218v-125l-92 -93l92 -92v-124z"/>
    <glyph glyph-name="guilsinglright" unicode="›" horiz-adv-x="298" d="M277 263l-216 -216v124l93 92l-93 93v125z"/>
    <glyph glyph-name="fraction" unicode="⁄" horiz-adv-x="568" d="M497 694l-324 -694h-102l325 694h101z"/>
    <glyph glyph-name="Euro" unicode="€" horiz-adv-x="540" d="M313 718q55 0 95 -21.5t60 -55.5t29.5 -66.5t10.5 -64.5h-96q-3 65 -32.5 89t-66.5 24q-16 0 -31 -3.5t-32 -13t-27 -31t-10 -52.5v-49h181v-91h-181v-48h181v-91h-181v-55q0 -31 10 -53t27 -32t32 -14t31 -4q35 0 66 24.5t34 87.5h96q-1 -27 -7 -53t-20.5 -55t-35.5 -50 t-56.5 -35t-80.5 -14q-46 0 -82 14.5t-56 36t-33 49.5t-17.5 51.5t-4.5 45.5v56h-79v91h79v48h-79v91h79v51q0 28 8 57.5t28 62t61.5 53t99.5 20.5z"/>
    <glyph glyph-name="trademark" unicode="™" horiz-adv-x="707" d="M636 302h-84v209l-25 -117h-63l-25 117v-209h-84v391h104l37 -131l34 131h106v-391zM333 609h-89v-307h-85v307h-88v84h262v-84z"/>
    <glyph glyph-name="Omega" unicode="Ω" horiz-adv-x="527" d="M279 0v80q99 14 99 106v339q0 32 -12 55t-31.5 33t-36.5 14t-34 4q-13 0 -26.5 -2t-30.5 -9t-29.5 -18t-21 -31t-8.5 -46v-339q0 -91 99 -106v-80h-226v82h67q-30 49 -30 104v341q0 26 10 56t31.5 62t64.5 53t100 21q46 0 82.5 -14t58.5 -35.5t37 -48.5t20.5 -50.5 t5.5 -44.5v-341q0 -52 -30 -103h68v-82h-227z"/>
    <glyph glyph-name="partialdiff" unicode="∂" horiz-adv-x="523" d="M367 183v74q0 31 -11 52t-29 30.5t-33 13t-31 3.5t-32 -3.5t-34 -13t-29.5 -30.5t-11.5 -52v-74q0 -30 11.5 -51t29.5 -30.5t34 -13.5t32 -4q22 0 43 6t41 30t20 63zM462 525v-347q0 -27 -9.5 -56t-30.5 -60t-62.5 -51t-96.5 -20q-56 0 -98.5 20.5t-63.5 52t-30.5 61 t-9.5 55.5v78q0 27 9.5 57t30 61.5t62 52t96.5 20.5q62 0 108 -36v110q0 40 -21.5 63.5t-44.5 29.5t-50 6v93q48 0 86.5 -14t61 -34.5t37.5 -47.5t20.5 -50t5.5 -44z"/>
    <glyph glyph-name="Delta" unicode="∆" horiz-adv-x="529" d="M13 0l183 713h135l184 -713h-502zM264 618l-133 -524h265z"/>
    <glyph glyph-name="product" unicode="∏" horiz-adv-x="550" d="M483 0h-95v602h-226v-602h-95v694h416v-694z"/>
    <glyph glyph-name="summation" unicode="∑" horiz-adv-x="547" d="M486 630h-292l237 -237v-68l-241 -242h296v-83h-425v72l284 287l-284 282v72h425v-83z"/>
    <glyph glyph-name="minus" unicode="−" horiz-adv-x="552" d="M466 236h-380v90h380v-90z"/>
    <glyph glyph-name="radical" unicode="√" horiz-adv-x="603" d="M67 318h98l114 -415l219 792h98l-252 -902h-130z"/>
    <glyph glyph-name="infinity" unicode="∞" horiz-adv-x="828" d="M425 178l-11 17l-11 -17q-26 -41 -67 -68t-89 -27q-78 0 -129 55.5t-51 141.5q0 85 51 140t129 55q48 0 89 -26.5t67 -67.5l11 -17l11 16q65 95 156 95q78 0 129 -55t51 -140q0 -86 -51 -141.5t-129 -55.5q-48 0 -89 27t-67 68zM498 326l-31 -46l31 -47q39 -60 80 -60 q43 0 67.5 31t24.5 76q0 44 -24.5 74.5t-67.5 30.5q-40 0 -80 -59zM250 385q-42 0 -67 -30.5t-25 -74.5q0 -45 25 -76t67 -31q39 0 80 60l32 47l-32 46q-42 59 -80 59z"/>
    <glyph glyph-name="integral" unicode="∫" horiz-adv-x="291" d="M177 -65q0 -72 -37 -107t-95 -35h-38v94h34q42 0 42 43v611q0 72 36.5 112.5t108.5 40.5h56v-94h-64q-17 0 -30 -11t-13 -37v-617z"/>
    <glyph glyph-name="approxequal" unicode="≈" horiz-adv-x="545" d="M406 431l68 -53q-49 -46 -75.5 -60.5t-57.5 -14.5q-25 0 -70.5 21.5t-71.5 21.5q-13 0 -25.5 -8t-38.5 -34l-64 53q46 46 72.5 61t57.5 15q25 0 70.5 -22t71.5 -22q20 0 63 42zM406 294l68 -53q-49 -46 -75.5 -60.5t-57.5 -14.5q-25 0 -70.5 21.5t-71.5 21.5 q-13 0 -25.5 -8t-38.5 -34l-64 53q46 46 72.5 61t57.5 15q25 0 70.5 -22t71.5 -22q20 0 63 42z"/>
    <glyph glyph-name="notequal" unicode="≠" horiz-adv-x="567" d="M480 167h-203l-105 -229h-101l105 229h-84v90h126l33 66h-159v90h201l103 219h100l-101 -219h85v-90h-127l-33 -66h160v-90z"/>
    <glyph glyph-name="lessequal" unicode="≤" horiz-adv-x="480" d="M413 123h-131l-248 251l261 261h130l-261 -261zM436 0h-382v90h382v-90z"/>
    <glyph glyph-name="greaterequal" unicode="≥" horiz-adv-x="481" d="M447 374l-252 -251h-129l250 251l-261 261h130zM426 0h-382v90h382v-90z"/>
    <glyph glyph-name="lozenge" unicode="◊" horiz-adv-x="529" d="M61 354l156 359h94l157 -359l-157 -354h-94zM155 354l109 -255l110 255l-109 259z"/>
    <glyph glyph-name="fi" unicode="ﬁ" horiz-adv-x="591" d="M418 432h-226v-432h-95v432h-86v93h86v34q0 72 37 113t109 41h57v-93h-65q-17 0 -30 -11.5t-13 -37.5v-46h321v-525h-95v432zM518 594h-107v122h107v-122z"/>
    <glyph glyph-name="fl" unicode="ﬂ" horiz-adv-x="587" d="M407 432h-215v-432h-95v432h-86v93h86v34q0 72 37 113t109 41h57v-93h-65q-17 0 -30 -11.5t-13 -37.5v-46h215v188h95v-576q0 -44 41 -44h35v-93h-40q-58 0 -94.5 34.5t-36.5 106.5v291z"/>
    <glyph glyph-name="CR" horiz-adv-x="250"/>
    </font>
</defs>
</svg>
